<svg width="1136" height="758" xmlns="http://www.w3.org/2000/svg" xmlns:xlink="http://www.w3.org/1999/xlink" overflow="hidden"><defs><clipPath id="clip0"><rect x="-1" y="-1" width="1136" height="758"></rect></clipPath></defs><g clip-path="url(#clip0)" transform="translate(1 1)"><path d="M0 504 1134 504 1134 756 0 756Z" fill-rule="evenodd"></path><path d="M0 252 1134 252 1134 504 0 504Z" fill="#FFFFFF" fill-rule="evenodd"></path><path d="M0 0 1134 0 1134 252 0 252Z" fill="#CE1126" fill-rule="evenodd"></path><path d="M568.01 380.985 654 460.94 647.878 315.73C646.979 293.722 627.885 298.771 614.015 306.71 599.964 315.73 583.934 315.73 567 309.774 550.069 315.729 534.038 315.729 519.987 306.71 506.118 298.772 487.027 293.722 486.125 315.729L480 460.94Z" stroke="#C09300" stroke-width="1.59927" stroke-linejoin="round" stroke-miterlimit="10" fill="#FFFFFF" fill-rule="evenodd"></path><path d="M496.039 310 490.093 451.942 480 461 486.128 315.078C489.01 313.083 494.058 310.001 496.039 310.001ZM508.123 320.16 503.077 438.894 492.988 449.281 499.114 312.18C501.098 314.173 507.045 319.067 508.123 320.154ZM519.114 329.221 515.151 428.249 507.043 436.223 512.09 323.239C514.067 325.233 518.031 328.134 519.114 329.221ZM531.009 334.301 527.045 418.702 519.115 425.172 523.079 331.22C525.063 332.127 529.027 334.301 531.009 334.301ZM542 334.301 539.115 404.637 531.007 412.615 534.072 335.209C536.05 335.209 541.097 335.209 542 334.301Z" fill="#C09300" fill-rule="evenodd"></path><path d="M16.0494 0 10.103 141.002 0.0101541 150 6.13874 5.04401C9.02021 3.06305 14.0686 0.00125543 16.0494 0.00125543ZM28.1331 10.093 23.0873 128.04 12.9983 138.359 19.1244 2.16552C21.1078 4.14523 27.0554 9.0072 28.1331 10.0868ZM39.124 19.094 35.161 117.466 27.0529 125.388 32.0999 13.1511C34.077 15.132 38.0413 18.0144 39.124 19.094ZM51.0193 24.1405 47.055 107.982 39.1253 114.409 43.0896 21.08C45.073 21.98 49.0372 24.1405 51.0193 24.1405ZM62.0103 24.1405 59.125 94.0099 51.0168 101.935 54.0817 25.0418C56.0601 25.0418 61.1072 25.0418 62.0103 24.1405Z" fill="#C09300" fill-rule="evenodd" transform="matrix(-1 1.22465e-16 1.22465e-16 1 654 311)"></path><path d="M571.454 397.427 583.5 452.474 579.543 456.443 575.409 453.375 568.577 404.288 571.454 453.375 567.498 458.427 563.543 453.375 566.42 404.288 559.59 453.375 555.452 456.443 551.5 452.474 563.543 397.427 571.454 397.427Z" stroke="#C09300" stroke-width="1.35192" stroke-miterlimit="8" fill="#C09300" fill-rule="evenodd"></path><path d="M540.434 373.522 516.484 458.48 549.44 463.522 563.484 399.621 540.433 373.522Z" stroke="#C09300" stroke-width="1.4968" stroke-linejoin="round" stroke-miterlimit="10" fill="#FFFFFF" fill-rule="evenodd"></path><path d="M531.983 401.946 534.794 409.027 549.983 394.026" stroke="#C09300" stroke-width="1.59864" stroke-linejoin="round" stroke-miterlimit="10" fill="none" fill-rule="evenodd"></path><path d="M542.201 384.022 545.469 414.738 555.403 401.708M551.429 406.769 556.855 425.537M558.983 418.642 548.008 435.348M551.431 452.022 547.918 435.371 544.852 418.435 537.499 428.413 534.274 416.908 523.983 427.487 529.217 446.729 536.44 434.825 540.413 446.953 547.828 435.393" stroke="#C09300" stroke-width="1.59864" stroke-linejoin="round" stroke-miterlimit="10" fill="none" fill-rule="evenodd"></path><path d="M522.985 456.146 529.672 447.011 534.028 461.071 540.001 451.214 543.985 463.011" stroke="#C09300" stroke-width="1.59864" stroke-linejoin="round" stroke-miterlimit="10" fill="none" fill-rule="evenodd"></path><path d="M23.9382 0.0220654-0.0119255 84.9804 32.9443 90.0219 46.9881 26.1209 23.9379 0.0217517Z" stroke="#C09300" stroke-width="1.4968" stroke-linejoin="round" stroke-miterlimit="10" fill="#FFFFFF" fill-rule="evenodd" transform="matrix(-1 1.22465e-16 1.22465e-16 1 618.5 373.5)"></path><path d="M-0.013141 7.94583 2.95381 15.0266 18.987 0.0264826" stroke="#C09300" stroke-width="1.59864" stroke-linejoin="round" stroke-miterlimit="10" fill="none" fill-rule="evenodd" transform="matrix(-1 1.22465e-16 1.22465e-16 1 602 394)"></path><path d="M18.2052 0.0218703 21.4731 30.7383 31.4068 17.7077M27.4334 22.7695 32.8594 41.537M34.9869 34.6418 24.0118 51.3477M27.4349 68.0219 23.9222 51.3706 20.8557 34.435 13.503 44.4134 10.2782 32.9084-0.0131148 43.487 5.22084 62.7289 12.4441 50.8251 16.417 62.9527 23.8325 51.393" stroke="#C09300" stroke-width="1.59864" stroke-linejoin="round" stroke-miterlimit="10" fill="none" fill-rule="evenodd" transform="matrix(-1 1.22465e-16 1.22465e-16 1 609 384)"></path><path d="M-0.00935815 9.14592 6.6772 0.0114541 11.0336 14.071 17.0066 4.214 20.9907 16.0115" stroke="#C09300" stroke-width="1.59864" stroke-linejoin="round" stroke-miterlimit="10" fill="none" fill-rule="evenodd" transform="matrix(-1 1.22465e-16 1.22465e-16 1 611 447)"></path><path d="M567.474 496.505C592.51 496.505 616.463 494.517 630.509 490.538 636.453 489.455 636.453 486.381 636.453 482.4 642.398 480.412 639.334 473.361 643.476 473.361 639.334 474.449 638.435 466.309 633.392 467.397 633.392 460.342 626.368 459.439 620.424 461.425 608.537 465.405 587.466 466.31 567.474 466.31 547.484 465.405 526.592 465.405 514.525 461.425 508.582 459.439 501.561 460.342 501.561 467.397 496.517 466.31 495.617 474.449 491.476 473.362 495.617 473.362 492.555 480.412 498.499 482.4 498.499 486.381 498.499 489.455 504.622 490.538 518.487 494.517 542.443 496.505 567.474 496.505Z" stroke="#C09300" stroke-width="2.9937" stroke-linecap="round" stroke-linejoin="round" stroke-miterlimit="10" fill="#FFFFFF" fill-rule="evenodd"></path><path d="M532.661 457.963C540.829 459.007 549.908 459.875 556.991 459.007 560.982 459.007 563.888 465.61 555.9 466.655 548.821 467.522 537.745 466.655 531.752 465.61 526.669 464.741 515.594 462.83 508.511 460.915 501.431 457.964 506.517 452.231 510.507 453.098 516.682 455.009 524.672 456.922 532.661 457.964ZM601.293 457.963C593.121 459.007 584.045 459.875 577.144 459.007 572.967 459.007 570.062 465.61 578.052 466.655 585.133 467.522 596.209 466.655 602.197 465.61 607.283 464.741 618.357 462.83 625.438 460.915 632.521 457.964 627.438 452.231 623.442 453.098 617.268 455.009 609.28 456.922 601.293 457.964Z" stroke="#C09300" stroke-width="1.59864" stroke-linecap="round" stroke-linejoin="round" stroke-miterlimit="10" fill="#FFFFFF" fill-rule="evenodd"></path><path d="M507.671 454.121C501.506 453.041 498.604 460.055 500.601 464.013 501.506 462.034 505.678 462.034 506.586 460.055 507.671 456.999 505.678 456.999 507.671 454.121ZM531.792 472.521C531.792 468.566 535.78 469.052 535.78 465.094 535.78 463.116 534.694 460.055 532.699 460.055 530.704 460.055 528.708 462.034 528.708 464.012 527.8 467.972 531.792 468.567 531.792 472.521ZM560.502 461.132C566.482 461.132 565.889 469.051 562.987 473.009 562.987 470.131 557.909 469.051 557.909 467.075 557.909 464.012 562.493 464.012 560.502 461.132ZM626.278 454.121C632.444 453.041 635.347 460.055 633.351 464.013 632.444 462.034 628.273 462.034 627.366 460.055 626.278 456.999 628.274 456.999 626.278 454.121ZM602.157 472.521C602.157 468.566 598.171 469.052 598.171 465.094 598.171 463.116 599.257 460.055 601.253 460.055 603.247 460.055 605.243 462.034 605.243 464.012 606.15 467.972 602.157 468.567 602.157 472.521ZM573.447 461.132C567.465 461.132 568.058 469.051 570.96 473.009 570.96 470.131 576.037 469.051 576.037 467.075 576.038 464.012 571.453 464.012 573.447 461.132Z" stroke="#C09300" stroke-width="1.59864" stroke-linecap="round" stroke-linejoin="round" stroke-miterlimit="10" fill="#FFFFFF" fill-rule="evenodd"></path><path d="M510.482 456.514C512.468 456.514 515.533 457.425 516.435 458.514L510.476 456.51ZM520.389 459.609C521.472 459.609 525.441 460.517 527.424 461.606L520.383 459.602ZM556.472 463.604C554.488 463.604 550.52 463.604 549.44 464.51L556.468 463.597ZM545.471 463.604C544.391 462.51 540.421 462.51 538.438 463.604L545.466 463.604ZM624.476 456.514C622.492 456.514 619.605 457.425 618.522 458.514ZM614.556 459.609C613.475 459.609 609.506 460.517 607.522 461.606L614.562 459.602ZM578.474 463.604C580.459 463.604 584.427 463.604 585.508 464.51L578.468 463.597ZM589.474 463.604C590.556 462.51 594.526 462.51 596.509 463.604L589.468 463.604Z" stroke="#C09300" stroke-width="1.12147" stroke-linecap="round" stroke-linejoin="round" stroke-miterlimit="10" fill="#FFFFFF" fill-rule="evenodd"></path><path d="M507.878 472.236C507.208 472.114 506.856 471.607 507.024 471.007 507.23 470.276 507.843 469.858 508.421 470.054 508.789 470.178 509.463 470.827 509.466 471.06 509.469 471.327 509.113 471.963 508.96 471.965 508.894 471.965 508.792 472.02 508.733 472.087 508.607 472.228 508.214 472.297 507.878 472.236ZM576.848 476.939C576.599 476.85 576.201 476.317 576.202 476.07 576.204 475.606 576.923 474.849 577.368 474.845 577.588 474.844 578.19 475.143 578.415 475.366 578.823 475.772 578.734 476.437 578.221 476.815 577.969 477.002 577.217 477.069 576.848 476.938ZM577.3 479.914C576.773 479.743 576.58 479.497 576.537 478.938 576.492 478.355 576.551 478.265 577.195 477.929L577.654 477.69 578.089 477.875C578.692 478.132 578.96 478.409 578.981 478.796 579.004 479.213 578.68 479.64 578.177 479.855 577.736 480.044 577.71 480.046 577.3 479.914Z" fill="#C09300" fill-rule="evenodd"></path><path d="M513.261 466.006C512.822 465.992 512.219 466.389 511.874 466.59 511.05 466.78 510.092 467.278 509.297 466.746 508.514 466.508 507.472 466.696 507.354 467.643 507.555 468.456 508.714 468.921 509.416 468.384 509.937 467.713 511.358 467.32 511.517 468.461 510.937 469.325 511.003 470.468 510.526 471.385 510.448 471.956 510.206 472.499 509.891 472.984 509.305 473.041 508.682 472.973 508.187 473.334 507.393 473.377 506.582 473.765 506.125 474.426 505.614 475.147 505.125 475.88 504.975 476.765 505.112 477.669 506.165 477.928 506.958 477.973 507.803 478.202 508.65 478.502 509.495 478.753 510.872 479.056 512.161 479.545 513.539 479.844 515.548 480.44 517.659 480.714 519.683 481.248 519.895 481.317 520.094 481.377 520.317 481.404 521.158 481.575 521.596 480.677 521.665 480 522.082 478.554 522.4 477.083 522.815 475.634 523.1 475.054 523.445 473.742 522.3 474.036 521.646 474.421 521.092 475.001 520.278 475.049 519.169 475.113 519.802 476.229 520.238 476.687 520.335 477.42 520.099 478.295 519.604 478.87 518.944 479.281 518.118 478.8 517.423 478.636 516.695 478.648 515.237 478.283 515.917 477.31 516.158 476.591 516.18 475.803 516.472 475.089 516.844 474.322 516.898 473.485 517.067 472.672 516.608 471.702 515.825 472.991 515.204 473.1 514.775 473.393 513.167 473.517 514.014 474.27 514.744 474.815 514.184 475.763 514.054 476.453 514.007 477.414 512.991 477.643 512.19 477.428 511.394 477.39 510.286 476.807 510.962 475.946 511.115 475.229 511.37 474.524 511.517 473.802 511.818 472.932 512.071 472.102 512.389 471.229 512.526 470.456 512.809 469.723 513.181 469.046 513.203 468.191 513.787 467.456 513.776 466.59 513.717 466.168 513.524 466.014 513.261 466.006ZM508.702 475.049C508.806 475.032 508.88 475.047 508.98 475.088 509.296 475.221 509.306 475.474 508.98 475.751 508.837 475.872 508.675 475.989 508.623 475.985 508.029 475.935 507.854 475.848 507.83 475.634 507.808 475.446 507.869 475.391 508.266 475.205 508.463 475.113 508.598 475.067 508.702 475.049ZM507.387 481.312C506.758 480.73 506.86 480.306 507.79 479.624 508.188 479.332 508.43 479.365 508.885 479.773 509.586 480.402 509.614 480.8 508.995 481.339 508.689 481.605 508.556 481.66 508.2 481.663 507.828 481.667 507.722 481.621 507.387 481.312ZM511.257 482.46C510.671 482.322 510.309 481.743 510.449 481.167 510.455 481.146 510.461 481.124 510.467 481.103 510.63 480.56 510.724 480.507 511.533 480.499 512.44 480.49 512.616 480.64 512.624 481.425 512.629 481.867 512.595 481.969 512.371 482.174 512.108 482.414 511.603 482.543 511.257 482.459ZM624.299 482.559C624.011 482.324 623.953 482.217 623.95 481.917 623.946 481.405 624.246 481.029 624.896 480.74 625.761 480.354 626.114 480.407 626.44 480.971 626.873 481.722 626.852 482.028 626.333 482.533 626.047 482.812 625.993 482.828 625.337 482.835 624.694 482.839 624.62 482.822 624.299 482.559ZM516.394 483.994C515.933 483.873 515.694 483.532 515.688 482.988 515.682 482.571 515.713 482.505 516.009 482.277 516.201 482.129 516.504 482.002 516.743 481.971 517.082 481.925 517.205 481.954 517.478 482.142 518.176 482.625 518.325 483.102 517.92 483.566 517.489 484.059 517.081 484.174 516.394 483.994ZM544.202 485.216C544.099 485.091 543.873 485.017 543.849 484.858 543.89 484.166 543.924 483.465 544.148 482.802 544.27 482.15 544.163 481.468 544.394 480.833 544.632 479.677 544.631 478.484 544.904 477.336 544.917 476.744 544.974 476.152 545.149 475.582 545.349 474.682 545.166 473.741 545.436 472.851 545.407 472.517 545.798 471.625 546.141 472.153 546.64 472.873 547.298 473.457 547.944 474.043 548.499 474.359 547.99 474.823 547.606 474.979 547.079 475.183 546.951 475.753 546.988 476.254 546.914 476.771 546.704 477.26 546.682 477.788 546.571 478.565 546.592 479.354 546.49 480.129 546.259 480.889 546.347 481.701 546.27 482.484 546.28 482.981 546.04 483.432 546.073 483.931 546.012 484.437 545.989 485.047 545.557 485.394 545.14 485.601 544.536 485.565 544.201 485.216ZM581.878 472.991C581.266 473.446 580.719 473.983 580.173 474.512 579.422 475.072 580.791 475.397 580.966 475.876 581.166 476.607 581.154 477.386 581.204 478.137 581.432 478.825 581.532 479.557 581.482 480.281 581.416 481.058 580.386 480.894 579.936 481.334 579.312 481.592 579.063 482.195 578.588 482.62 578.275 483.222 578.192 483.963 578.152 484.647 578.196 485.206 577.768 485.831 578.152 486.324 578.201 486.393 578.26 486.488 578.31 486.557 578.439 486.739 578.745 486.594 578.945 486.635 579.583 486.6 580.249 486.694 580.847 486.44 582.382 486.179 583.931 486.158 585.486 486.09 586.436 486.119 587.35 485.794 588.3 485.817 589.045 485.979 589.38 485.185 589.371 484.608 588.949 483.793 589.313 482.826 588.974 481.996 588.676 481.157 588.794 480.215 588.657 479.346 588.638 478.661 587.755 478.408 587.309 478.917 586.876 479.347 586.177 479.433 585.842 479.969 585.466 480.721 586.638 480.722 586.833 481.295 587.057 481.874 586.984 482.518 587.031 483.127 587.176 483.866 586.36 483.908 585.842 483.985 585.161 484.236 584.206 484.403 583.82 483.595 583.578 482.997 583.611 482.356 583.543 481.724 583.526 480.611 583.254 479.517 583.186 478.41 583.121 477.042 582.881 475.682 582.79 474.317 582.777 473.749 582.7 472.822 581.878 472.992ZM581.085 483.283 581.482 483.322 581.521 483.789 581.561 484.257 581.045 484.413C580.772 484.493 580.534 484.531 580.53 484.53 580.449 484.482 580.369 484.429 580.292 484.374 580.014 484.176 580.085 483.894 580.451 483.517 580.657 483.304 580.754 483.263 581.085 483.283ZM543.072 471.706C542.59 471.875 541.978 472.571 541.487 472.564 540.37 472.642 540.526 473.711 541.328 474.084 541.434 474.409 541.335 474.818 541.368 475.176 541.524 476.161 540.892 476.953 541.011 477.944 540.955 479.029 540.622 480.087 540.575 481.179 540.262 482.306 540.258 483.465 540.06 484.61 539.927 485.637 539.172 485.274 538.513 485 538.508 484.555 538.479 484.12 538.474 483.674 538.748 482.655 537.914 482.357 537.086 482.232 536.216 482.313 535.789 481.579 535.976 480.829 536.35 480.391 537.291 480.513 537.879 480.439 539.124 480.693 539.074 479.052 538.434 478.49 537.997 477.697 536.914 477.356 536.611 476.541 536.732 475.46 536.002 474.38 535.104 473.851 533.723 473.756 532.681 474.927 532.171 476.073 531.596 476.236 531.024 476.405 530.466 476.619 529.567 476.84 528.284 478.374 529.514 478.957 530.205 479.144 532.306 479.616 531.378 480.556 530.855 481.438 529.854 481.453 528.959 481.219 528.042 481.219 527.02 480.779 527.057 479.737 526.869 478.802 526.9 477.793 526.462 476.93 526.274 475.883 525.066 476.128 524.995 477.086 524.065 477.753 524.189 478.83 524.837 479.62 525.241 480.529 524.841 481.588 524.441 482.427 524.198 483.518 522.974 483.555 522.101 483.908 521.673 484.072 520.036 483.811 520.635 484.727 521.59 485.058 522.731 485.357 523.727 485.116 524.771 484.989 525.677 484.287 526.185 483.401 526.886 482.703 528.09 483.068 528.999 483.05 529.98 483.048 530.982 483.727 531.933 483.284 532.208 482.581 533.483 481.419 533.875 482.622 533.809 483.698 534.775 484.275 535.778 484.142 536.874 484.081 536.469 484.904 536.452 485.546 536.525 486.711 537.289 487.323 538.276 487.807 538.612 487.896 538.967 487.866 539.306 487.807 540.255 487.513 541.277 487.097 541.566 486.052 541.951 485.203 541.96 484.243 542.24 483.363 542.465 481.953 542.755 480.543 542.795 479.114 543.145 477.818 543.045 476.449 543.31 475.137 543.478 474.162 543.603 473.187 543.707 472.214 543.59 471.693 543.362 471.606 543.072 471.707ZM534.47 476.891C534.662 476.914 534.769 477.146 534.787 477.554 534.807 478.008 535.049 478.378 535.342 478.45 535.574 478.507 535.554 478.748 535.303 478.918 535.157 479.017 534.896 479.077 534.43 479.074 533.697 479.07 533.243 478.884 532.845 478.489L532.607 478.256 532.964 478.021C533.214 477.827 533.452 477.619 533.677 477.398 534.039 477.035 534.278 476.868 534.47 476.891ZM618.235 467.066C617.516 467.098 616.793 467.213 616.135 467.378 614.815 467.297 614.152 468.659 615.421 469.327 616.184 471.241 617.375 468.932 618.592 469.093 620.416 469.442 620.57 471.379 620.852 472.835 620.955 474.278 621.377 475.682 621.803 477.046 623.024 478.38 620.889 479.216 619.98 478.176 619.204 477.347 617.543 476.33 616.61 477.474 615.464 477.952 615.417 479.458 614.469 479.891 612.936 480.351 612.743 478.495 611.932 477.708 611.187 476.68 609.763 476.59 608.602 476.227 608.058 475.143 608.342 473.301 607.215 472.563 606.269 472.942 604.534 474.686 605.986 475.486 607.404 476.685 605.367 477.234 604.717 478.059 603.789 479.075 603.641 480.474 603.488 481.763 601.891 482.63 601.58 480.78 601.387 479.618 601.263 478.232 600.073 478.639 599.246 479.151 598.038 479.632 597.435 480.76 596.59 481.645 596.489 482.453 596.638 483.338 596.63 484.179 596.904 485.191 598.155 484.716 598.929 484.647 600.171 484.136 600.679 485.43 599.683 486.168 599.008 487.011 596.867 486.57 597.066 487.922 597.756 488.001 598.475 487.975 599.167 487.922 600.55 487.55 602.036 486.59 602.18 485.076 602.362 483.756 604.295 483.996 605.351 483.712 606.672 483.337 608.262 483.241 608.563 484.881 609.462 485.81 611.415 486.857 612.408 485.583 613.416 484.977 613.9 483.914 613.835 482.776 613.629 481.797 615.444 481.762 615.896 482.308 616.558 483.378 618.625 483.063 619.623 482.464 620.683 481.694 620.914 480.337 622.438 480.32 624.698 479.654 627.047 479.27 629.256 478.449 631.045 478.065 628.99 476.955 628.542 476.305 627.18 475.642 625.995 478.353 624.459 477.006 623.272 476.113 623.353 474.416 622.913 473.108 622.612 471.415 622.688 469.462 621.446 468.118 620.593 467.227 619.435 467.012 618.235 467.066ZM609.593 478.878C609.753 478.874 609.933 478.952 610.228 479.112 610.784 479.413 611.18 479.914 611.179 480.32 611.179 480.585 611.11 480.603 610.703 480.788 610.453 480.901 610.169 481.023 610.069 481.022 609.839 481.019 609.277 480.577 609.276 480.398 609.275 480.324 609.203 480.041 609.118 479.814 608.968 479.413 608.991 479.419 609.197 479.151 609.328 478.979 609.434 478.882 609.593 478.878ZM617.879 479.306C618.351 479.276 618.632 479.421 618.83 479.775 619.061 480.185 618.904 480.499 618.315 480.749 618.057 480.859 617.798 480.948 617.76 480.944 617.721 480.94 617.508 480.816 617.284 480.671 616.941 480.449 616.891 480.342 616.888 480.086 616.884 479.693 617.331 479.342 617.878 479.306ZM606.541 479.423C606.679 479.402 606.805 479.473 606.977 479.618 607.205 479.811 607.277 479.966 607.334 480.359 607.373 480.632 607.367 480.985 607.334 481.139 607.272 481.421 607.266 481.408 606.62 481.412 605.808 481.419 605.732 481.332 605.748 480.593 605.758 480.123 605.763 479.996 606.026 479.735 606.229 479.533 606.403 479.444 606.541 479.423ZM599.564 481.217C599.817 481.275 600.056 481.463 600.119 481.762 600.202 482.159 600.129 482.339 599.801 482.503 599.52 482.644 598.87 482.691 598.691 482.581 598.633 482.545 598.514 482.453 598.454 482.347 598.367 482.196 598.383 482.123 598.493 482.035 598.57 481.974 598.652 481.886 598.652 481.84 598.651 481.795 598.737 481.637 598.85 481.489 599.035 481.248 599.311 481.158 599.563 481.217ZM611.298 482.698C611.524 482.697 611.715 482.774 611.853 482.893 612.088 483.095 612.08 483.392 611.813 483.595 611.642 483.725 610.707 483.713 610.386 483.595 610.243 483.542 610.189 483.471 610.188 483.322 610.185 483.146 610.235 483.038 610.545 482.893 610.804 482.771 611.072 482.699 611.298 482.698ZM589.515 488.709C589.394 488.631 589.213 488.563 589.395 488.433 589.614 488.055 590.052 487.925 590.441 487.784 591.135 487.488 591.735 486.986 592.183 486.389 592.246 485.974 592.721 485.748 592.719 485.314 592.722 484.722 592.758 484.115 592.611 483.535 592.449 483.004 592.038 482.597 591.563 482.321 591.237 482.069 590.708 482 590.588 481.554 590.521 481.127 590.909 480.801 591.045 480.42 591.328 479.894 591.567 479.343 591.871 478.83 592.199 478.471 592.706 478.81 592.877 479.157 593.117 479.503 593.329 479.875 593.448 480.276 593.832 480.69 594.172 481.176 594.31 481.726 594.498 482.113 594.796 482.477 594.778 482.931 594.778 483.451 595.076 483.913 595.058 484.436 595.075 485.135 595.074 485.864 594.814 486.524 594.637 486.89 594.281 487.11 594.045 487.438 593.641 487.807 593.195 488.16 592.675 488.356 592.309 488.471 592.096 488.887 591.636 488.786 590.983 488.797 590.321 488.885 589.673 488.781 589.714 488.849 589.475 488.667 589.515 488.71ZM580.825 489.271C580.517 488.959 580.451 488.827 580.447 488.522 580.444 488.213 580.504 488.09 580.805 487.791 581.361 487.239 581.633 487.225 582.593 487.703 583.51 488.16 583.82 488.201 583.902 487.878 583.982 487.566 584.51 487.28 585.011 487.278 585.329 487.275 585.508 487.338 585.762 487.532 586.081 487.776 586.097 487.814 586.105 488.379 586.11 488.957 586.102 488.979 585.736 489.298 585.384 489.602 585.328 489.621 584.892 489.578 584.337 489.523 584.005 489.274 583.914 488.844 583.849 488.532 583.737 488.458 583.654 488.669 583.627 488.738 583.491 488.822 583.351 488.856 583.093 488.92 582.655 489.191 582.344 489.48 582.226 489.589 582.02 489.641 581.686 489.644 581.234 489.647 581.172 489.621 580.825 489.271ZM555.682 478.168C554.839 478.177 553.931 478.875 553.819 479.688 554.012 480.627 554.805 481.547 554.295 482.534 554.647 483.798 553.329 484.277 552.431 483.548 551.889 482.336 551.615 481.008 550.806 479.923 549.786 479.638 549.341 481.241 548.626 481.794 548.98 482.736 550.016 483.58 550.132 484.756 550.38 485.898 549.674 487.165 548.665 487.758 547.795 488.575 546.603 488.283 545.534 488.46 544.234 489.206 546.487 489.479 547.08 489.512 548.409 489.645 549.788 489.473 550.766 488.499 551.742 488.041 551.667 486.381 552.828 486.199 554.843 486.11 556.84 486.502 558.853 486.55 559.931 486.803 561.598 486.423 562.342 487.212 562.344 488.594 563.535 489.446 564.681 489.98 565.314 490.153 565.98 489.382 566.623 489.239 567.848 488.855 567.476 487.366 568.209 486.783 570.303 486.672 572.416 486.696 574.512 486.666 574.911 486.676 575.029 486.118 575.305 485.887 575.259 485.09 575.23 484.299 575.107 483.509 574.703 482.503 575.172 481.208 574.433 480.351 573.38 480.069 572.484 481.017 571.42 481.092 570.245 481.607 569.256 482.674 569.2 483.977 568.505 485.095 567.389 483.778 567.773 482.846 567.729 482.44 567.862 481.968 567.733 481.599 567.09 480.84 565.964 481.088 565.078 480.975 563.785 481.026 562.524 480.751 561.232 480.78 560.099 480.696 558.921 480.877 557.823 480.586 556.514 480.549 556.694 479.29 556.475 478.402 556.243 478.233 555.963 478.165 555.682 478.168ZM558.219 482.768C558.654 482.777 559.065 482.833 559.488 482.885 560.034 482.974 560.617 482.7 561.153 482.885 562.392 483.092 563.631 483.043 564.879 483.158 565.209 483.153 565.445 483.388 565.672 483.587 565.675 484.439 565.673 485.307 565.672 486.16 565.634 486.481 565.769 486.906 565.474 487.134 565.379 487.198 565.273 487.268 565.157 487.29 564.813 487.203 564.45 486.981 564.284 486.666 564.232 486.22 564.307 485.788 564.324 485.341 564.315 485.225 564.376 485.045 564.324 484.951 564.054 484.763 563.748 484.641 563.412 484.639 562.335 484.603 561.279 484.525 560.201 484.483 559.305 484.428 558.383 484.559 557.506 484.328 557.165 484.206 556.722 484.247 556.515 483.899 556.218 483.559 556.646 483.154 556.951 483.002 557.355 482.822 557.784 482.76 558.219 482.768ZM572.53 483.08C572.731 483.077 572.795 483.142 572.887 483.509 572.945 483.743 573.013 484.029 573.045 484.133 573.091 484.28 573.018 484.328 572.808 484.405 572.181 484.638 571.557 484.615 571.341 484.328 571.242 484.197 571.357 483.785 571.539 483.626 571.906 483.303 572.313 483.081 572.53 483.08Z" fill="#C09300" fill-rule="evenodd"></path><path d="M582.514 318.623C583.354 318.673 581.377 314.143 581.377 314.143 583.601 316.408 592 316.949 592 316.949 586.96 314.732 581.922 297.995 582.514 284.655 583.058 271.266 580.588 265.997 578.611 264.029 576.091 261.518 567.989 259.303 562.653 259.007 559.639 258.86 560.133 261.271 560.133 261.271 554.551 259.844 548.968 259.303 546.448 260.976 544.075 262.552 543.581 270.428 545.312 269.05 549.51 265.702 553.167 268.755 555.686 272.397 557.909 275.597 557.761 284.655 554.549 295.238 551.19 306.363 542 317.489 542 317.489 546.99 317.489 554.006 313.059 554.006 313.059L552.327 320C557.613 317.489 561.813 313.6 561.813 313.6L566.852 318.868C568.532 316.653 571.892 313.6 571.892 313.6 571.892 313.6 576.091 318.031 582.514 318.623Z" stroke="#C09300" stroke-width="1.53333" stroke-miterlimit="8" fill="#FFFFFF" fill-rule="evenodd"></path><path d="M561.995 286.538C561.995 286.538 559.216 307.083 554 312.918M566.384 286C566.384 286 565.31 306.789 561.704 313.459M570.275 286.838C570.275 286.838 570.275 309.589 571.64 313.462M575.199 287.963C575.199 287.963 576.32 307.087 581 314" stroke="#C09300" stroke-width="1.59874" stroke-miterlimit="8" fill="none" fill-rule="evenodd"></path><path d="M557.211 277.5C556.965 275.547 556.52 274.014 555.877 273.011 553.356 269.103 549.701 265.828 545.5 269.42 545.5 269.42 546.933 264.666 549.997 264.508 552.369 264.35 557.755 266.409 562.5 275.07 562.5 275.07 558.991 274.226 558.152 275.018 556.569 276.497 557.211 277.5 557.211 277.5Z" stroke="#C09300" stroke-width="0.445669" stroke-miterlimit="8" fill="#C09300" fill-rule="evenodd"></path><path d="M545.598 264.04C545.936 262.919 546.469 261.895 547.147 261.456 549.617 259.799 555.086 260.335 560.556 261.748 560.556 261.748 560.072 259.36 563.025 259.507 568.253 259.799 576.192 261.993 578.66 264.479 579.241 265.113 579.92 266.04 580.5 267.452L580.404 267.452C579.194 265.746 575.756 265.844 574.933 265.941 573.625 266.088 572.803 266.038 571.06 266.477 570.237 266.673 568.978 266.916 568.3 267.452 567.769 267.891 567.332 269.5 566.51 269.5 565.202 269.5 565.3 269.159 564.96 268.769 564.524 268.233 564.282 267.452 563.846 267.501 562.492 267.746 560.313 266.673 557.554 264.479 554.795 262.284 553.729 261.748 550.147 261.992 546.614 262.284 545.5 264.284 545.5 264.284Z" stroke="#C09300" stroke-width="0.445669" stroke-miterlimit="8" fill="#C09300" fill-rule="evenodd"></path><path d="M567 265.5C567 266.328 566.328 267 565.5 267 564.672 267 564 266.328 564 265.5 564 264.672 564.672 264 565.5 264 566.328 264 567 264.672 567 265.5Z" fill="#FFFFFF" fill-rule="evenodd"></path><path d="M567.475 412.5C608.983 380.814 605.424 334.397 605.424 334.397 604.329 334.615 603.288 334.723 602.193 334.723 593.486 334.723 572.719 329.78 567.874 323.5 562.684 329.184 541.462 334.723 532.81 334.723 531.715 334.723 530.62 334.615 529.58 334.397 529.58 334.397 525.965 380.812 567.474 412.5Z" stroke="#C09300" stroke-width="1.44777" stroke-miterlimit="8" fill="#FFFFFF" fill-rule="evenodd"></path><path d="M555 333 555 397 547.474 387.006C542.476 379.154 538.683 370.467 536.193 361.074 534.611 355.106 533.569 348.903 533.177 342.723 533.073 341.069 532.985 339.251 533.002 337.497 533.342 337.562 533.685 337.606 534.032 337.606 537.733 337.606 544.023 336.488 550.27 334.674Z" fill="#C09300" fill-rule="evenodd"></path><path d="M566.687 328C568.437 329.498 570.884 330.872 573.692 332.089L578 333.57 578 396.89 576.933 398.247C573.721 401.727 570.208 404.984 566.408 408 562.612 404.986 559.102 401.733 555.893 398.255L555 397.12 555 333.404 559.445 331.896C562.327 330.7 564.855 329.384 566.687 328Z" fill="#FFFFFF" fill-rule="evenodd"></path><path d="M578 333 582.924 334.69C589.392 336.457 595.963 337.467 599.919 337.467 600.282 337.467 600.642 337.456 601 337.434 601.006 338.706 600.909 340.838 600.811 342.579 600.396 348.797 599.296 355.038 597.63 361.043 595.006 370.501 591.01 379.249 585.749 387.157L578 397Z" fill="#C09300" fill-rule="evenodd"></path><path d="M601.5 338.457C601.149 338.479 600.796 338.49 600.441 338.49 592.691 338.49 574.691 334.493 567.753 328.5 560.485 334.036 542.188 338.49 534.563 338.49 534.206 338.49 533.852 338.446 533.502 338.381 533.485 340.128 533.575 341.937 533.683 343.584 534.086 349.736 535.16 355.911 536.789 361.853 541.92 380.553 552.42 396.445 567.476 408.5 582.544 396.435 593.057 380.528 598.199 361.814 599.831 355.873 600.908 349.699 601.315 343.547 601.411 341.825 601.506 339.716 601.5 338.457Z" stroke="#C09300" stroke-width="1.15318" stroke-miterlimit="8" fill="none" fill-rule="evenodd"></path></g></svg>