<svg width="1136" height="758" xmlns="http://www.w3.org/2000/svg" xmlns:xlink="http://www.w3.org/1999/xlink" overflow="hidden"><defs><clipPath id="clip0"><rect x="-1" y="-1" width="1136" height="758"></rect></clipPath></defs><g clip-path="url(#clip0)" transform="translate(1 1)"><path d="M0 0 1134 0 1134 756 0 756Z" fill="#ED1C24" fill-rule="evenodd"></path><path d="M0 189 1134 189 1134 567 0 567Z" fill="#FFFFFF" fill-rule="evenodd"></path><path d="M561.429 189C553.315 206.103 538.038 218.056 523.434 229.368 521.032 231.468 515.058 235.536 519.391 238.632 523.104 234.479 533.293 239.979 527.371 244.447 522.067 249.416 514.764 251.236 508.874 255.338 503.658 258.176 498.366 261.137 494.23 265.48 493.949 272.266 502.638 268.509 506.165 271.336 510.757 276.25 504.218 284.537 498.191 282.641 490.486 282.878 485.164 289.666 482.248 296.142 476.221 305.472 464.799 308.237 455.704 313.547 450.5 316.583 445.452 319.943 440.609 323.486 434.364 327.762 439.796 336.225 446.442 334.148 453.615 333.431 460.068 327.789 467.495 329.415 474.229 331.784 476.119 340.595 473.825 346.748 472.124 351.673 468.004 355.143 464.704 358.99 459.346 364.424 452.339 367.952 444.949 369.635 437.809 372.035 431.39 376.414 426.706 382.327 421.271 387.806 415.856 393.373 409.607 397.941 407.633 402.984 413.204 407.279 417.846 407.145 427.633 406.527 434.414 398.51 442.748 394.39 449.665 391.278 457.804 398.741 456.112 405.953 455.576 412.971 449.014 416.531 443.179 418.691 426.026 427.323 411.131 439.842 397.907 453.653 395.172 459.24 387.652 457.595 383.604 461.488 380.967 466.415 387.585 469.013 391.535 468.507 408.506 466.464 424.342 459.282 439.344 451.382 444.923 448.712 450.161 445.198 455.962 443.07 461.41 441.722 469.007 444.092 469.981 450.3 469.973 456.853 463.489 460.482 458.353 463.042 442.516 471.372 425.136 475.977 408.21 481.483 401.872 479.71 397.097 490.997 404.049 493.027 411.4 495.549 419.215 493.526 426.734 493.196 449.985 489.63 470.32 477.035 492.053 468.893 501.089 465.944 511.754 470.059 516.213 478.535 520.693 486.09 520.282 496.025 515.557 503.365 508.089 519.361 496.735 534.062 481.492 543.259 471.925 548.002 460.757 549.815 452.557 557.075 444.972 559.578 456.359 569.837 458.004 561.694 462.561 555.472 470.599 553.612 477.889 553.355 488.846 552.161 500.483 550.138 508.996 542.545 516.628 536.611 524.15 528.425 534.514 528.298 540.241 528.978 545.907 533.585 551.724 530.774 556.814 528.441 564.798 529.808 566.127 536.073 568.557 543.402 576.103 546.737 582.087 550.658 584.253 553.703 591.45 561.555 593.109 554.632 591.77 549.694 593.683 542.138 600.154 543.788 605.806 544.04 611.192 546.128 616.834 546.469 624.345 548.027 630.612 553.175 634.878 559.392 637.812 563.45 644.24 570.42 649.017 565.04 651.98 559.477 646.323 554.837 641.717 552.85 635.002 548.684 629.26 543.136 623.388 537.883 614.732 529.79 607.259 519.498 605.884 507.41 604.022 495.359 605.002 483.065 606.573 471.045 608.551 463.307 618.436 459.082 625.348 463.194 635.073 467.636 644.732 473.993 655.882 473.304 671.993 473.651 688.549 470.563 704.294 475.236 719.617 480.068 730.572 493.013 745.497 498.614 748.838 500.647 753.113 498.712 754.337 495.139 755.816 491.929 754.772 487.823 751.683 485.992 734.384 468.512 710.745 460.022 690.73 446.363 684.43 444.761 683.282 434.612 689.108 431.682 696.765 426.111 707.602 428.705 714.395 434.449 720.133 437.813 726.597 440.334 733.329 440.339 740.224 438.179 736.881 428.191 730.708 427.439 719.52 421.116 711.509 410.74 701.818 402.516 696.236 397.786 690.129 392.997 682.629 392.08 678.531 391.332 674.339 391.17 670.185 391.449 666.29 387.211 671.48 380.721 676.518 381.252 681.686 381.6 686.823 381.985 691.985 381.265 697.754 380.842 703.517 380.245 709.305 380.206 713.978 383.39 723.315 377.889 719.098 372.396 714.491 368.354 707.83 368.705 702.325 366.632 692.66 363.468 682.816 360.878 672.846 358.875 665.875 358.459 666.736 349.274 672.863 348.26 676.873 346.763 680.359 349.847 684.208 350.325 690.782 351.74 697.569 351.721 704.139 353.155 709.712 350.402 705.404 342.254 700.365 341.778 688.474 337.521 678.197 329.839 668.149 322.365 657.057 314.014 646.995 304.356 635.766 296.197 631.692 293.671 625.014 292.943 623.943 287.342 623.565 282.188 629.623 279.842 633.918 281.047 640.012 282.848 645.689 285.984 651.901 287.525 656.773 288.354 661.797 289.797 666.493 289.183 672.454 285.432 663.935 283.036 660.852 281.735 652.905 277.443 645.842 271.726 638.688 266.272 632.643 261.107 643.816 258.825 647.658 260.814 654.084 263.505 654.816 254.132 650.013 251.774 644.354 249.365 639.488 245.366 634.357 241.878 625.084 235.271 614.584 230.041 603.187 228.588 590.408 227.302 578.48 219.947 571.701 209.006 567.497 202.772 564.411 195.877 561.429 189ZM519.466 260.768C526.051 260.963 525.038 272.847 518.555 272.054 512.258 271.648 512.643 259.491 519.466 260.768ZM581.588 267.168C587.997 266.02 589.354 277.727 582.952 278.277 576.279 279.473 573.807 266.426 581.588 267.168ZM563.393 268.694C569.89 269.973 568.735 281.304 562.177 281.402 557.38 282.472 552.209 285.75 547.356 283.294 543.409 279.114 549.113 272.935 553.519 271.577 556.898 270.895 560.008 269.358 563.393 268.694ZM605.269 268.743C611.531 271.028 609.322 282.094 602.718 281.952 596.473 282.791 593.564 272.36 599.388 269.887 601.273 269.218 603.248 268.655 605.269 268.743ZM534.627 281.294C539.232 285.681 536.512 294.146 530.835 296.169 526.744 298.447 521.165 303.838 516.709 299.402 514.29 293.985 520.36 289.906 523.931 286.899 527.117 284.419 530.633 282.168 534.627 281.294ZM587.208 305.759C593.799 308.874 590.453 320.767 583.219 320.028 577.277 318.52 578.053 308.318 584.038 307.504 585.169 307.07 586.206 306.432 587.208 305.759ZM566.292 306.939C572.457 309.829 567.75 320.128 561.54 318.644 555.102 317.887 555.22 306.556 562.321 307.579 563.659 307.513 565.04 307.478 566.292 306.939ZM611.379 312.847C618.135 310.748 626.27 317.716 624.078 324.784 621.067 330.263 613.621 330.955 608.286 328.908 602.161 328.605 598.041 319.387 603.498 315.483 605.756 313.777 608.602 313.074 611.379 312.847ZM511.571 314.619C517.159 311.576 523.09 320.721 518.339 324.755 515.192 329.388 507.11 331.279 503.547 326.13 500.586 321.097 505.374 312.645 511.572 314.619ZM485.794 318.95C492.131 319.818 496.261 325.581 498.604 331.069 499.175 337.755 489.319 341.424 485.02 336.559 480.185 333.523 475.953 327.279 478.488 321.483 480.05 319.181 483.161 318.232 485.795 318.95ZM640.01 343.119C646.889 341.305 651.882 352.309 645.975 356.289 640.575 361.199 630.075 354.695 632.892 347.689 634.291 345.09 637.092 343.365 640.011 343.119ZM552.466 355.671C558.234 356.406 556.365 366.413 551.032 366.077 545.31 365.015 546.62 355.107 552.466 355.671ZM523.211 360.987C527.914 357.655 533.982 365.788 530.069 369.577 525.38 372.884 519.297 364.881 523.211 360.987ZM569.727 361.971C575.178 365.288 578.415 371.472 579.093 377.712 576.48 383.543 566.388 382.138 565.25 375.929 563.256 371.018 565.094 364.703 569.725 361.973ZM585.959 371.62C592.985 369.853 590.463 384.556 584.597 379.456 582.647 377.138 583.691 373.324 585.958 371.62ZM484.011 381.858C488.664 380.494 495.446 381.928 496.73 387.274 497.271 392.297 491.753 394.911 487.709 396.156 481.229 398.158 474.891 401.445 467.921 401.004 462.696 398.015 460.821 391.898 458.959 386.562 464 381.83 471.425 383.219 477.674 382.034 479.784 381.926 481.898 381.874 484.011 381.858ZM642.15 404.895C648.084 401.981 654.468 411.413 649.5 415.818 643.285 422.979 631.32 424.31 623.887 418.293 622.995 411.957 629.317 407.353 634.936 406.444 637.298 405.775 639.647 404.778 642.15 404.895ZM675.508 412.131C682.253 410.969 687.564 420.599 682.748 425.584 678.191 432.464 667.322 434.268 661.108 428.628 658.685 422.925 663.6 416.982 668.831 415.152 671.079 414.193 673.208 412.966 675.508 412.131ZM507.78 422.37C514.025 421.752 519.747 427.955 518.928 434.119 523.448 438.572 515.443 446.87 510.939 442.258 506.97 437.443 506.99 430.912 505.453 425.15 505.384 423.87 506.331 422.212 507.78 422.37ZM555.722 425.963C562.179 423.168 570.532 430.901 567.016 437.447 564.505 442.779 554.716 440.991 555.041 434.816 555.025 431.861 554.787 428.831 555.722 425.962ZM532.398 430.147C538.872 428.661 544.811 437.063 541.214 442.668 534.76 443.243 531.409 435.574 532.398 430.147Z" fill="#00A651" fill-rule="evenodd"></path></g></svg>