<svg width="1136" height="758" xmlns="http://www.w3.org/2000/svg" xmlns:xlink="http://www.w3.org/1999/xlink" overflow="hidden"><defs><clipPath id="clip0"><rect x="-1" y="-1" width="1136" height="758"></rect></clipPath></defs><g clip-path="url(#clip0)" transform="translate(1 1)"><path d="M0 0 1134 0 1134 756 0 756Z" fill="#E30A17" fill-rule="evenodd"></path><path d="M213 374C213 271.842 295.957 189 398.256 189 464.163 189 522.047 223.339 554.857 275.133 527.778 244.944 488.377 225.914 444.534 225.914 362.724 225.914 296.387 292.302 296.387 374 296.387 455.698 362.724 522.086 444.677 522.086 488.52 522.086 527.921 503.056 555 472.867 522.19 524.661 464.306 559 398.399 559 295.957 559 213 476.158 213 374Z" fill="#FFFFFF" fill-rule="evenodd"></path><path d="M722 319.626 658.143 340.374 618.714 286 618.714 353.252 555 374 618.714 394.748 618.714 462 658.143 407.626 722 428.374 682.571 374Z" fill="#FFFFFF" fill-rule="evenodd"></path></g></svg>