
<svg xmlns="http://www.w3.org/2000/svg" width="800" version="1.0" height="500" id="svg54">
  
  
  <defs id="defs58"></defs>
  
  <path id="rect2" style="fill:#74acdf" d="M 0,0 H 800 V 500 H 0 Z"></path>
  <path id="rect4" style="fill:#ffffff" d="M 0,166.67 H 800 V 333.34 H 0 Z"></path>
  <g id="rays">
    <path id="ray1" stroke-width="1.1116" stroke="#85340a" fill="#f6b40e" d="m396.84 251.31l28.454 61.992s0.4896 1.185 1.28 0.8586c0.7902-0.3267 0.2988-1.5116 0.2988-1.5116l-23.715-63.956m-0.68 24.12c-0.3465 9.4278 5.4526 14.613 4.6943 23.032-0.7569 8.42 3.8673 13.18 4.9396 16.454 1.0733 3.2744-1.16 5.2323-0.198 5.6982 0.96336 0.4662 3.07-2.1207 2.3833-6.7756-0.68675-4.6549-4.2204-6.0368-3.3898-16.32 0.83-10.283-4.206-12.678-2.98-22.058"></path>
    <path id="use7" stroke-width="1.1116" stroke="#85340a" fill="#f6b40e" d="m 396.57923,250.001 2.56475,68.16202 c 0,0 -0.001,1.28216 0.854,1.28307 0.85507,5.7e-4 0.85452,-1.28219 0.85452,-1.28219 l 2.56509,-68.16297 m -9.85856,22.02375 c -3.92799,8.57755 -0.55461,15.58727 -4.477,23.07522 -3.92147,7.48941 -1.47084,13.65668 -1.73307,17.09182 -0.26146,3.43588 -3.07402,4.3901 -2.36354,5.18868 0.71162,0.79937 3.64787,-0.78444 4.79479,-5.34779 1.14688,-4.56338 -1.58895,-7.19235 3.11363,-16.37494 4.70195,-9.18262 0.96582,-13.32251 5.68807,-21.51933"></path>
    <path id="use9" stroke-width="1.1116" stroke="#85340a" fill="#f6b40e" d="m 396.83923,248.69185 -23.71494,63.95498 c 0,0 -0.49173,1.18412 0.29797,1.51222 0.78977,0.32774 1.28015,-0.85758 1.28015,-0.85758 l 28.45468,-61.99276 m -17.53625,16.57459 c -6.91147,6.42144 -6.47738,14.18852 -12.96671,19.60545 -6.48905,5.41863 -6.58507,12.05426 -8.14191,15.12756 -1.55641,3.07429 -4.52004,2.87955 -4.16924,3.88923 0.35154,1.01085 3.67038,0.67126 6.47632,-3.10583 2.8059,-3.77711 1.28439,-7.25293 9.14303,-13.93693 7.85808,-6.68428 5.99061,-11.93879 13.49018,-17.70454"></path>
    <path id="use11" stroke-width="1.1116" stroke="#85340a" fill="#f6b40e" d="m 397.58044,247.58186 -46.38427,50.01138 c 0,0 -0.90743,0.90581 -0.30341,1.51113 0.60423,0.60503 1.51089,-0.30241 1.51089,-0.30241 l 50.0123,-46.3847 m -22.5442,8.60209 c -8.84275,3.28773 -11.41403,10.62969 -19.48236,13.15093 -8.06872,2.52291 -10.69678,8.61669 -13.31121,10.86027 -2.61442,2.24466 -5.27793,0.93061 -5.34023,1.99768 -0.062,1.06843 3.13411,2.02475 7.17189,-0.39103 4.03776,-2.41583 3.9622,-6.20933 13.7805,-9.37716 9.81788,-3.16832 10.10337,-8.7375 19.23853,-11.19439"></path>
    <path id="ray2" fill="#85340a" d="m404.31 274.41c0.45334 9.0538 5.5867 13.063 4.5787 21.314 2.2133-6.5249-3.1233-11.583-2.82-21.22m-7.6487-23.757l19.487 42.577-16.329-43.887"></path>
    <path id="use14" fill="#85340a" d="m 394.64062,274.20126 c -3.04591,8.53811 0.16244,14.20658 -3.92635,21.44377 4.54179,-5.18123 1.54707,-11.89654 5.5152,-20.68389 m 2.02494,-24.87564 1.71012,46.79337 1.7088,-46.79514"></path>
    <path id="use16" fill="#85340a" d="m 385.78715,270.30811 c -6.08144,6.72256 -5.28654,13.18733 -11.83364,18.3089 6.17884,-3.04876 5.98191,-10.39892 13.01076,-16.99885 m 11.39029,-22.20718 -16.32709,43.88588 19.48645,-42.57915"></path>
    <path id="use18" fill="#85340a" d="m 379.09747,263.32322 c -8.19114,3.88357 -9.9307,10.16043 -17.93938,12.38669 6.87522,-0.45215 9.50606,-7.31818 18.52556,-10.72589 m 19.02157,-16.15789 -31.87866,34.29716 34.29746,-31.88086"></path>
  </g>
  <g id="use21" transform="rotate(90,400,250)">
    <path id="path957" stroke-width="1.1116" stroke="#85340a" fill="#f6b40e" d="m 396.84,251.31 28.454,61.992 c 0,0 0.4896,1.185 1.28,0.8586 0.7902,-0.3267 0.2988,-1.5116 0.2988,-1.5116 l -23.715,-63.956 m -0.68,24.12 c -0.3465,9.4278 5.4526,14.613 4.6943,23.032 -0.7569,8.42 3.8673,13.18 4.9396,16.454 1.0733,3.2744 -1.16,5.2323 -0.198,5.6982 0.96336,0.4662 3.07,-2.1207 2.3833,-6.7756 -0.68675,-4.6549 -4.2204,-6.0368 -3.3898,-16.32 0.83,-10.283 -4.206,-12.678 -2.98,-22.058"></path>
    <path id="use959" stroke-width="1.1116" stroke="#85340a" fill="#f6b40e" d="m 396.57923,250.001 2.56475,68.16202 c 0,0 -0.001,1.28216 0.854,1.28307 0.85507,5.7e-4 0.85452,-1.28219 0.85452,-1.28219 l 2.56509,-68.16297 m -9.85856,22.02375 c -3.92799,8.57755 -0.55461,15.58727 -4.477,23.07522 -3.92147,7.48941 -1.47084,13.65668 -1.73307,17.09182 -0.26146,3.43588 -3.07402,4.3901 -2.36354,5.18868 0.71162,0.79937 3.64787,-0.78444 4.79479,-5.34779 1.14688,-4.56338 -1.58895,-7.19235 3.11363,-16.37494 4.70195,-9.18262 0.96582,-13.32251 5.68807,-21.51933"></path>
    <path id="use961" stroke-width="1.1116" stroke="#85340a" fill="#f6b40e" d="m 396.83923,248.69185 -23.71494,63.95498 c 0,0 -0.49173,1.18412 0.29797,1.51222 0.78977,0.32774 1.28015,-0.85758 1.28015,-0.85758 l 28.45468,-61.99276 m -17.53625,16.57459 c -6.91147,6.42144 -6.47738,14.18852 -12.96671,19.60545 -6.48905,5.41863 -6.58507,12.05426 -8.14191,15.12756 -1.55641,3.07429 -4.52004,2.87955 -4.16924,3.88923 0.35154,1.01085 3.67038,0.67126 6.47632,-3.10583 2.8059,-3.77711 1.28439,-7.25293 9.14303,-13.93693 7.85808,-6.68428 5.99061,-11.93879 13.49018,-17.70454"></path>
    <path id="use963" stroke-width="1.1116" stroke="#85340a" fill="#f6b40e" d="m 397.58044,247.58186 -46.38427,50.01138 c 0,0 -0.90743,0.90581 -0.30341,1.51113 0.60423,0.60503 1.51089,-0.30241 1.51089,-0.30241 l 50.0123,-46.3847 m -22.5442,8.60209 c -8.84275,3.28773 -11.41403,10.62969 -19.48236,13.15093 -8.06872,2.52291 -10.69678,8.61669 -13.31121,10.86027 -2.61442,2.24466 -5.27793,0.93061 -5.34023,1.99768 -0.062,1.06843 3.13411,2.02475 7.17189,-0.39103 4.03776,-2.41583 3.9622,-6.20933 13.7805,-9.37716 9.81788,-3.16832 10.10337,-8.7375 19.23853,-11.19439"></path>
    <path id="path965" fill="#85340a" d="m 404.31,274.41 c 0.45334,9.0538 5.5867,13.063 4.5787,21.314 2.2133,-6.5249 -3.1233,-11.583 -2.82,-21.22 m -7.6487,-23.757 19.487,42.577 -16.329,-43.887"></path>
    <path id="use967" fill="#85340a" d="m 394.64062,274.20126 c -3.04591,8.53811 0.16244,14.20658 -3.92635,21.44377 4.54179,-5.18123 1.54707,-11.89654 5.5152,-20.68389 m 2.02494,-24.87564 1.71012,46.79337 1.7088,-46.79514"></path>
    <path id="use969" fill="#85340a" d="m 385.78715,270.30811 c -6.08144,6.72256 -5.28654,13.18733 -11.83364,18.3089 6.17884,-3.04876 5.98191,-10.39892 13.01076,-16.99885 m 11.39029,-22.20718 -16.32709,43.88588 19.48645,-42.57915"></path>
    <path id="use971" fill="#85340a" d="m 379.09747,263.32322 c -8.19114,3.88357 -9.9307,10.16043 -17.93938,12.38669 6.87522,-0.45215 9.50606,-7.31818 18.52556,-10.72589 m 19.02157,-16.15789 -31.87866,34.29716 34.29746,-31.88086"></path>
  </g>
  <g id="use23" transform="rotate(180,400,250)">
    <path id="path927" stroke-width="1.1116" stroke="#85340a" fill="#f6b40e" d="m 396.84,251.31 28.454,61.992 c 0,0 0.4896,1.185 1.28,0.8586 0.7902,-0.3267 0.2988,-1.5116 0.2988,-1.5116 l -23.715,-63.956 m -0.68,24.12 c -0.3465,9.4278 5.4526,14.613 4.6943,23.032 -0.7569,8.42 3.8673,13.18 4.9396,16.454 1.0733,3.2744 -1.16,5.2323 -0.198,5.6982 0.96336,0.4662 3.07,-2.1207 2.3833,-6.7756 -0.68675,-4.6549 -4.2204,-6.0368 -3.3898,-16.32 0.83,-10.283 -4.206,-12.678 -2.98,-22.058"></path>
    <path id="use929" stroke-width="1.1116" stroke="#85340a" fill="#f6b40e" d="m 396.57923,250.001 2.56475,68.16202 c 0,0 -0.001,1.28216 0.854,1.28307 0.85507,5.7e-4 0.85452,-1.28219 0.85452,-1.28219 l 2.56509,-68.16297 m -9.85856,22.02375 c -3.92799,8.57755 -0.55461,15.58727 -4.477,23.07522 -3.92147,7.48941 -1.47084,13.65668 -1.73307,17.09182 -0.26146,3.43588 -3.07402,4.3901 -2.36354,5.18868 0.71162,0.79937 3.64787,-0.78444 4.79479,-5.34779 1.14688,-4.56338 -1.58895,-7.19235 3.11363,-16.37494 4.70195,-9.18262 0.96582,-13.32251 5.68807,-21.51933"></path>
    <path id="use931" stroke-width="1.1116" stroke="#85340a" fill="#f6b40e" d="m 396.83923,248.69185 -23.71494,63.95498 c 0,0 -0.49173,1.18412 0.29797,1.51222 0.78977,0.32774 1.28015,-0.85758 1.28015,-0.85758 l 28.45468,-61.99276 m -17.53625,16.57459 c -6.91147,6.42144 -6.47738,14.18852 -12.96671,19.60545 -6.48905,5.41863 -6.58507,12.05426 -8.14191,15.12756 -1.55641,3.07429 -4.52004,2.87955 -4.16924,3.88923 0.35154,1.01085 3.67038,0.67126 6.47632,-3.10583 2.8059,-3.77711 1.28439,-7.25293 9.14303,-13.93693 7.85808,-6.68428 5.99061,-11.93879 13.49018,-17.70454"></path>
    <path id="use933" stroke-width="1.1116" stroke="#85340a" fill="#f6b40e" d="m 397.58044,247.58186 -46.38427,50.01138 c 0,0 -0.90743,0.90581 -0.30341,1.51113 0.60423,0.60503 1.51089,-0.30241 1.51089,-0.30241 l 50.0123,-46.3847 m -22.5442,8.60209 c -8.84275,3.28773 -11.41403,10.62969 -19.48236,13.15093 -8.06872,2.52291 -10.69678,8.61669 -13.31121,10.86027 -2.61442,2.24466 -5.27793,0.93061 -5.34023,1.99768 -0.062,1.06843 3.13411,2.02475 7.17189,-0.39103 4.03776,-2.41583 3.9622,-6.20933 13.7805,-9.37716 9.81788,-3.16832 10.10337,-8.7375 19.23853,-11.19439"></path>
    <path id="path935" fill="#85340a" d="m 404.31,274.41 c 0.45334,9.0538 5.5867,13.063 4.5787,21.314 2.2133,-6.5249 -3.1233,-11.583 -2.82,-21.22 m -7.6487,-23.757 19.487,42.577 -16.329,-43.887"></path>
    <path id="use937" fill="#85340a" d="m 394.64062,274.20126 c -3.04591,8.53811 0.16244,14.20658 -3.92635,21.44377 4.54179,-5.18123 1.54707,-11.89654 5.5152,-20.68389 m 2.02494,-24.87564 1.71012,46.79337 1.7088,-46.79514"></path>
    <path id="use939" fill="#85340a" d="m 385.78715,270.30811 c -6.08144,6.72256 -5.28654,13.18733 -11.83364,18.3089 6.17884,-3.04876 5.98191,-10.39892 13.01076,-16.99885 m 11.39029,-22.20718 -16.32709,43.88588 19.48645,-42.57915"></path>
    <path id="use941" fill="#85340a" d="m 379.09747,263.32322 c -8.19114,3.88357 -9.9307,10.16043 -17.93938,12.38669 6.87522,-0.45215 9.50606,-7.31818 18.52556,-10.72589 m 19.02157,-16.15789 -31.87866,34.29716 34.29746,-31.88086"></path>
  </g>
  <g id="use25" transform="rotate(-90,400,250)">
    <path id="path897" stroke-width="1.1116" stroke="#85340a" fill="#f6b40e" d="m 396.84,251.31 28.454,61.992 c 0,0 0.4896,1.185 1.28,0.8586 0.7902,-0.3267 0.2988,-1.5116 0.2988,-1.5116 l -23.715,-63.956 m -0.68,24.12 c -0.3465,9.4278 5.4526,14.613 4.6943,23.032 -0.7569,8.42 3.8673,13.18 4.9396,16.454 1.0733,3.2744 -1.16,5.2323 -0.198,5.6982 0.96336,0.4662 3.07,-2.1207 2.3833,-6.7756 -0.68675,-4.6549 -4.2204,-6.0368 -3.3898,-16.32 0.83,-10.283 -4.206,-12.678 -2.98,-22.058"></path>
    <path id="use899" stroke-width="1.1116" stroke="#85340a" fill="#f6b40e" d="m 396.57923,250.001 2.56475,68.16202 c 0,0 -0.001,1.28216 0.854,1.28307 0.85507,5.7e-4 0.85452,-1.28219 0.85452,-1.28219 l 2.56509,-68.16297 m -9.85856,22.02375 c -3.92799,8.57755 -0.55461,15.58727 -4.477,23.07522 -3.92147,7.48941 -1.47084,13.65668 -1.73307,17.09182 -0.26146,3.43588 -3.07402,4.3901 -2.36354,5.18868 0.71162,0.79937 3.64787,-0.78444 4.79479,-5.34779 1.14688,-4.56338 -1.58895,-7.19235 3.11363,-16.37494 4.70195,-9.18262 0.96582,-13.32251 5.68807,-21.51933"></path>
    <path id="use901" stroke-width="1.1116" stroke="#85340a" fill="#f6b40e" d="m 396.83923,248.69185 -23.71494,63.95498 c 0,0 -0.49173,1.18412 0.29797,1.51222 0.78977,0.32774 1.28015,-0.85758 1.28015,-0.85758 l 28.45468,-61.99276 m -17.53625,16.57459 c -6.91147,6.42144 -6.47738,14.18852 -12.96671,19.60545 -6.48905,5.41863 -6.58507,12.05426 -8.14191,15.12756 -1.55641,3.07429 -4.52004,2.87955 -4.16924,3.88923 0.35154,1.01085 3.67038,0.67126 6.47632,-3.10583 2.8059,-3.77711 1.28439,-7.25293 9.14303,-13.93693 7.85808,-6.68428 5.99061,-11.93879 13.49018,-17.70454"></path>
    <path id="use903" stroke-width="1.1116" stroke="#85340a" fill="#f6b40e" d="m 397.58044,247.58186 -46.38427,50.01138 c 0,0 -0.90743,0.90581 -0.30341,1.51113 0.60423,0.60503 1.51089,-0.30241 1.51089,-0.30241 l 50.0123,-46.3847 m -22.5442,8.60209 c -8.84275,3.28773 -11.41403,10.62969 -19.48236,13.15093 -8.06872,2.52291 -10.69678,8.61669 -13.31121,10.86027 -2.61442,2.24466 -5.27793,0.93061 -5.34023,1.99768 -0.062,1.06843 3.13411,2.02475 7.17189,-0.39103 4.03776,-2.41583 3.9622,-6.20933 13.7805,-9.37716 9.81788,-3.16832 10.10337,-8.7375 19.23853,-11.19439"></path>
    <path id="path905" fill="#85340a" d="m 404.31,274.41 c 0.45334,9.0538 5.5867,13.063 4.5787,21.314 2.2133,-6.5249 -3.1233,-11.583 -2.82,-21.22 m -7.6487,-23.757 19.487,42.577 -16.329,-43.887"></path>
    <path id="use907" fill="#85340a" d="m 394.64062,274.20126 c -3.04591,8.53811 0.16244,14.20658 -3.92635,21.44377 4.54179,-5.18123 1.54707,-11.89654 5.5152,-20.68389 m 2.02494,-24.87564 1.71012,46.79337 1.7088,-46.79514"></path>
    <path id="use909" fill="#85340a" d="m 385.78715,270.30811 c -6.08144,6.72256 -5.28654,13.18733 -11.83364,18.3089 6.17884,-3.04876 5.98191,-10.39892 13.01076,-16.99885 m 11.39029,-22.20718 -16.32709,43.88588 19.48645,-42.57915"></path>
    <path id="use911" fill="#85340a" d="m 379.09747,263.32322 c -8.19114,3.88357 -9.9307,10.16043 -17.93938,12.38669 6.87522,-0.45215 9.50606,-7.31818 18.52556,-10.72589 m 19.02157,-16.15789 -31.87866,34.29716 34.29746,-31.88086"></path>
  </g>
  <path id="circle27" style="fill:#f6b40e;stroke:#85340a;stroke-width:1.5" d="M 427.778,250 A 27.778,27.778 0 0 1 400,277.778 27.778,27.778 0 0 1 372.222,250 27.778,27.778 0 0 1 400,222.222 27.778,27.778 0 0 1 427.778,250 Z"></path>
  <path id="loweyecontour" fill="#843511" d="m409.47 244.06c-1.8967 0.00003-3.7131 0.82183-4.7812 2.5312 2.1367 1.9227 6.8565 2.1318 10.062-0.21875-1.3883-1.4954-3.3845-2.3125-5.2812-2.3125zm-0.0312 0.4375c1.8462-0.0335 3.5717 0.81446 3.8125 1.6562-2.1367 2.3504-5.5508 2.1463-7.6875 0.4375 0.9348-1.4957 2.4391-2.0677 3.875-2.0938z"></path>
  <path id="use30" fill="#85340a" d="m 409.83,242.74 c -2.7767,0 -3.4186,0.6417 -4.7007,1.71 -1.2833,1.0683 -1.9233,0.8541 -2.1367,1.0683 -0.2124,0.2142 0,0.8541 0.4266,0.6399 0.4266,-0.2142 1.2833,-0.6399 2.5633,-1.7086 1.2833,-1.0696 2.5633,-1.0683 3.8463,-1.0683 3.8463,0 5.983,3.2046 6.4094,2.9907 0.4266,-0.2142 -2.1367,-3.6325 -6.4094,-3.6325 z"></path>
  <path id="use32" fill="#85340a" d="m 417.52,244.02 c -4.9146,-4.2729 -11.11,-4.9147 -14.53,-1.7086 -0.837,1.1207 -1.3733,2.319 -1.5934,3.5696 -0.4302,2.433 0.3303,5.0617 2.2367,7.7559 -0.2151,-0.001 -0.6435,0.2124 -0.8568,0.4266 -1.6967,-3.244 -2.2967,-6.5761 -1.74,-9.7454 0.1458,-0.828 0.3735,-1.643 0.6696,-2.4357 4.7007,-3.8452 11.11,-4.2729 15.811,2.1377 z"></path>
  <path id="use34" style="fill:#85340a" d="m 411.32501,246.14999 a 1.923,1.923 0 0 1 -1.923,1.923 1.923,1.923 0 0 1 -1.923,-1.923 1.923,1.923 0 0 1 1.923,-1.923 1.923,1.923 0 0 1 1.923,1.923 z"></path>
  <path id="use36" fill="#85340a" d="m 414.96,247.44 c -3.6327,2.7783 -7.265,2.5644 -9.4017,1.282 -2.1367,-1.282 -2.1367,-1.7086 -1.71,-1.7086 0.4266,0 0.8532,0.4266 2.5633,1.281 1.71,0.8559 4.273,0.8559 8.546,-0.8541 z"></path>
  <path d="m395.75 253.84c-0.91341 0.16668-1.5625 0.97727-1.5625 1.9062 0 1.0614 0.87748 1.9062 1.9375 1.9062 0.62667 0 1.2025-0.2968 1.5625-0.8125 0.73952 0.55614 1.7646 0.61511 2.3125 0.625 0.0843 0.002 0.19312 0 0.25 0 0.54791-0.01 1.573-0.0689 2.3125-0.625 0.36 0.5157 0.93583 0.8125 1.5625 0.8125 1.06 0 1.9375-0.84488 1.9375-1.9062 0-0.92898-0.64918-1.7396-1.5625-1.9062 0.513 0.1809 0.84375 0.6765 0.84375 1.2188 0 0.7074-0.57124 1.2812-1.2812 1.2812-0.6804 0-1.2413-0.54015-1.2812-1.2188-0.20862 0.41637-1.0341 1.6551-2.6562 1.7188-1.6222-0.0636-2.4476-1.3024-2.6562-1.7188-0.04 0.6786-0.60085 1.2188-1.2812 1.2188-0.71001 0-1.2812-0.57385-1.2812-1.2812 0-0.54225 0.33075-1.0378 0.84375-1.2188z" fill="#85340a" id="path38"></path>
  <path d="m397.84 259.53c-2.138 0-2.9829 1.9368-4.9062 3.2188 1.0687-0.42633 1.9096-1.2693 3.4062-2.125 1.496-0.85442 2.7717 0.1875 3.625 0.1875h0.0312c0.8532 0 2.129-1.0416 3.625-0.1875 1.4967 0.8559 2.3688 1.6987 3.4375 2.125-1.9233-1.282-2.7996-3.2188-4.9375-3.2188-0.4266 0-1.2716 0.23055-2.125 0.65625h-0.0312c-0.85334-0.42642-1.6983-0.65625-2.125-0.65625z" fill="#85340a" id="path40"></path>
  <path d="m397.12 262.06c-0.8439 0.0374-1.9596 0.20675-3.5625 0.6875 3.8473-0.85434 4.6962 0.4375 6.4062 0.4375h0.0312c1.71 0 2.5588-1.292 6.4062-0.4375-4.2744-1.282-5.1242-0.4375-6.4062-0.4375h-0.0312c-0.80125 0-1.4372-0.3124-2.8438-0.25z" fill="#85340a" id="path42"></path>
  <path d="m393.75 262.72c-0.24819 0.003-0.51871 0.005-0.8125 0.0312 4.488 0.42766 2.3306 3 7.0312 3h0.0312c4.7007 0 2.5745-2.5724 7.0625-3-4.7007-0.4266-3.2146 2.3438-7.0625 2.3438h-0.0312c-3.6075 0-2.4959-2.4215-6.2188-2.375z" fill="#85340a" id="path44"></path>
  <path d="m403.85 269.66c0-2.1234-1.7233-3.8465-3.8463-3.8465-2.1233 0-3.8463 1.723-3.8463 3.8465 0.423-1.781 2.0166-3.0393 3.8463-3.0393 1.8333 0 3.424 1.2586 3.8463 3.0393v0 0z" fill="#85340a" id="path46"></path>
  <path id="eyebrow_nose" fill="#85340a" d="m382.73 244.02c4.9146-4.2729 11.11-4.9147 14.53-1.7086 0.837 1.1207 1.3733 2.319 1.5934 3.5696 0.4302 2.433-0.3303 5.0617-2.2367 7.7559 0.2151-0.001 0.6435 0.2124 0.8568 0.4266 1.6967-3.244 2.2967-6.5761 1.74-9.7454-0.1458-0.828-0.3735-1.643-0.6696-2.4357-4.7007-3.8452-11.11-4.2729-15.811 2.1377z"></path>
  <path id="uppalpebra" fill="#85340a" d="m390.42 242.74c2.7767 0 3.4186 0.6417 4.7007 1.71 1.2833 1.0683 1.9233 0.8541 2.1367 1.0683 0.2124 0.2142 0 0.8541-0.4266 0.6399s-1.2833-0.6399-2.5633-1.7086c-1.2833-1.0696-2.5633-1.0683-3.8463-1.0683-3.8463 0-5.983 3.2046-6.4094 2.9907-0.4266-0.2142 2.1367-3.6325 6.4094-3.6325z"></path>
  <path id="use50" fill="#843511" d="m 390.289,244.06 c -1.8967,3e-5 -3.7131,0.82183 -4.7812,2.5312 2.1367,1.9227 6.8565,2.1318 10.062,-0.21875 -1.3883,-1.4954 -3.3845,-2.3125 -5.2812,-2.3125 z m -0.0312,0.4375 c 1.8462,-0.0335 3.5717,0.81446 3.8125,1.6562 -2.1367,2.3504 -5.5508,2.1463 -7.6875,0.4375 0.9348,-1.4957 2.4391,-2.0677 3.875,-2.0938 z"></path>
  <path id="pupil" style="fill:#85340a" d="m 392.46301,246.14999 a 1.923,1.923 0 0 1 -1.923,1.923 1.923,1.923 0 0 1 -1.923,-1.923 1.923,1.923 0 0 1 1.923,-1.923 1.923,1.923 0 0 1 1.923,1.923 z"></path>
  <path id="lowpalpebra" fill="#85340a" d="m385.29 247.44c3.6327 2.7783 7.265 2.5644 9.4017 1.282 2.1367-1.282 2.1367-1.7086 1.71-1.7086-0.4266 0-0.8532 0.4266-2.5633 1.281-1.71 0.8559-4.273 0.8559-8.546-0.8541z"></path>
</svg>
