<svg width="1136" height="568" xmlns="http://www.w3.org/2000/svg" xmlns:xlink="http://www.w3.org/1999/xlink" overflow="hidden"><defs><clipPath id="clip0"><rect x="-1" y="94" width="1136" height="568"></rect></clipPath></defs><g clip-path="url(#clip0)" transform="translate(1 -94)"><path d="M0 472 1134 472 1134 661 0 661Z" fill="#FF0000" fill-rule="evenodd"></path><path d="M0 283 1134 283 1134 472 0 472Z" fill="#005CE5" fill-rule="evenodd"></path><path d="M0 94 1134 94 1134 283 0 283Z" fill="#FFFFFF" fill-rule="evenodd"></path><path d="M282.941 193.979C281.673 193.981 280.408 194.007 279.147 194.043 254.616 194.68 231.586 201.019 215.187 208.75L215.189 208.772C213.395 209.522 211.639 210.274 209.969 211.026L215.606 299.374C219.511 345.543 249.578 372.423 282.985 382.979 316.393 372.423 346.458 345.543 350.364 299.374L355.969 211.306C354.295 210.439 352.54 209.599 350.749 208.772L350.751 208.75C333.515 200.624 308.956 194.024 283.026 193.981 283.007 193.98 282.988 193.979 282.969 193.979 282.96 193.979 282.95 193.979 282.941 193.979Z" fill="#005CE5" fill-rule="evenodd"></path><path d="M283.003 255.006 266.51 287.281 255.847 273.4 227.985 310.298C228.488 312.589 229.08 314.799 229.725 316.958 232.837 322.221 238.817 328.229 246.487 328.229 252.573 328.229 258.659 323.35 264.745 323.35 270.831 323.35 276.917 328.229 283.003 328.229 289.089 328.229 295.175 323.35 301.261 323.35 307.347 323.35 313.434 328.229 319.52 328.229 327.12 328.229 333.06 322.332 336.196 317.104 336.865 314.888 337.466 312.605 337.985 310.249L310.159 273.4 299.496 287.281ZM264.745 328.229C258.659 328.229 252.573 333.108 246.487 333.108 241.67 333.108 237.532 331.398 234.327 328.973 235.458 331.38 236.656 333.722 237.966 335.938 240.477 337.502 243.33 338.56 246.487 338.56 252.573 338.56 258.659 333.681 264.745 333.681 270.831 333.681 276.917 338.56 283.003 338.56 289.089 338.56 295.175 333.681 301.261 333.681 307.347 333.681 313.434 338.56 319.52 338.56 322.631 338.56 325.445 337.526 327.931 335.999 329.24 333.79 330.437 331.456 331.57 329.058 328.38 331.438 324.28 333.108 319.52 333.108 313.434 333.108 307.347 328.229 301.261 328.229 295.175 328.229 289.089 333.108 283.003 333.108 276.917 333.108 270.831 328.229 264.745 328.229ZM264.745 338.56C258.659 338.56 252.573 343.439 246.487 343.439 245.164 343.439 243.907 343.284 242.689 343.049 253.218 357.145 267.583 366.58 282.991 372.006 298.367 366.589 312.709 357.147 323.232 343.073 322.041 343.298 320.81 343.439 319.52 343.439 313.434 343.439 307.347 338.56 301.261 338.56 295.175 338.56 289.089 343.439 283.003 343.439 276.917 343.439 270.831 338.56 264.745 338.56Z" fill="#FFFFFF" fill-rule="evenodd"></path><path d="M255.986 206.011 269.986 206.011 262.986 218.011" fill="#FFE500" fill-rule="evenodd"></path><path d="M-0.0143664 0.011377 13.9856 0.011377 6.98569 12.0114" fill="#FFE500" fill-rule="evenodd" transform="matrix(1 0 0 -1 256 214)"></path><path d="M296.986 206.011 310.986 206.011 303.986 218.011" fill="#FFE500" fill-rule="evenodd"></path><path d="M-0.01426 0.011377 13.9857 0.011377 6.98569 12.0114" fill="#FFE500" fill-rule="evenodd" transform="matrix(1 0 0 -1 297 214)"></path><path d="M276.987 233.011 289.987 233.011 283.487 245.011" fill="#FFE500" fill-rule="evenodd"></path><path d="M-0.0133402 0.011377 12.9868 0.011377 6.48671 12.0115" fill="#FFE500" fill-rule="evenodd" transform="matrix(1 0 0 -1 277 241)"></path><path d="M282.951 194.013C281.642 194.015 280.337 194.042 279.035 194.081 280.337 194.047 281.641 194.015 282.951 194.013ZM215.194 208.806C213.4 209.556 211.645 210.308 209.974 211.06L215.611 299.41C219.516 345.579 249.582 372.458 282.99 383.013 316.397 372.458 346.463 345.579 350.369 299.41L355.974 211.34C354.301 210.473 352.546 209.633 350.754 208.806L345.523 296.485C341.898 341.372 313.988 367.505 282.975 377.768 251.962 367.505 224.051 341.372 220.425 296.485Z" fill="#FF0000" fill-rule="evenodd"></path></g></svg>