<svg width="1136" height="758" xmlns="http://www.w3.org/2000/svg" xmlns:xlink="http://www.w3.org/1999/xlink" overflow="hidden"><defs><clipPath id="clip0"><rect x="-1" y="-1" width="1136" height="758"></rect></clipPath></defs><g clip-path="url(#clip0)" transform="translate(1 1)"><path d="M0 0 1134 0 1134 756 0 756Z" fill-rule="evenodd"></path><path d="M0 0 1134 0 1134 504 0 504Z" fill="#FFFFFF" fill-rule="evenodd"></path><path d="M0 0 1134 0 1134 252 0 252Z" fill="#CE1126" fill-rule="evenodd"></path><path d="M657 355.191 732.63 355.192 756 283 779.37 355.192 855 355.191 793.814 399.808 817.185 472 756 427.382 694.815 472 718.186 399.808Z" fill="#007A3D" fill-rule="evenodd"></path><path d="M279 355.191 354.63 355.192 378 283 401.37 355.192 477 355.191 415.814 399.808 439.185 472 378 427.382 316.815 472 340.186 399.808Z" fill="#007A3D" fill-rule="evenodd"></path></g></svg>