<svg xmlns="http://www.w3.org/2000/svg" height="600" width="900"><g transform="matrix(2.1739127,0,0,2.1818755,0,441.82309)"><path d="M 0,-202.49693 H 414.00007 V 72.495845 H 0 Z" fill="#ce1126"></path><path d="M 0,-110.83272 H 414.00007 V 72.495777 H 0 Z" fill="#fff"></path><path d="M 0,-19.168521 H 414.00007 V 72.495728 H 0 Z"></path><g transform="matrix(1.0072994,0,0,1.0036232,-0.46414865,-202.7648)" fill="#007a3d"><path d="m 246.026,120.178 c -0.558,-0.295 -1.186,-0.768 -1.395,-1.054 -0.314,-0.438 -0.132,-0.456 1.163,-0.104 2.318,0.629 3.814,0.383 5.298,-0.873 l 1.308,-1.103 1.54,0.784 c 0.848,0.428 1.748,0.725 2.008,0.656 0.667,-0.176 2.05,-1.95 2.005,-2.564 -0.054,-0.759 0.587,-0.568 0.896,0.264 0.615,1.631 -0.281,3.502 -1.865,3.918 -0.773,0.201 -1.488,0.127 -2.659,-0.281 -1.438,-0.502 -1.684,-0.494 -2.405,0.058 -1.618,1.239 -3.869,1.355 -5.894,0.299 z"></path><path d="m 251.76,114.936 c -0.563,-0.717 -1.239,-3.424 -1.021,-4.088 0.192,-0.576 0.391,-0.691 0.914,-0.527 0.918,0.287 1.13,0.92 0.993,3.064 -0.107,1.747 -0.366,2.206 -0.886,1.551 z"></path><path d="m 184.244,112.99 c -0.185,1.311 2.325,4.568 3.458,5.158 -0.77,0.345 -1.728,0.188 -2.434,0.576 -3.948,3.948 -18.367,18.006 -21,21.366 7.799,0.154 16.448,-0.106 23.761,-0.44 -0.007,-5.299 5.018,-5.572 8.381,-7.502 1.73,2.725 6.075,2.516 6.618,6.617 0,4.91 0.009,12.307 0.009,17.646 -22.059,0 -44.565,0 -66.625,0 -1.172,5.176 -5.844,9.125 -12.354,7.5 2.014,-2.104 5.405,-2.827 6.619,-5.734 1.024,-6.365 -2.046,-10.296 -4.031,-13.906 3.284,-1.195 3.782,-1.494 7.121,-3.737 -2.344,7.12 6.091,6.338 12.353,6.175 0.211,-2.417 0.089,-5.271 -1.766,-5.624 2.396,-0.87 2.794,-1.168 6.619,-4.412 v 9.593 c 14.886,0 30.942,-0.111 46.139,-0.111 0,-3.002 0.795,-7.824 -1.581,-7.824 -2.269,0 -0.107,6.173 -1.87,6.173 -1.763,0 -23.719,0 -35.63,0 0,-1.328 -0.034,-4.104 -0.034,-6.104 1.51,-1.51 1.331,-1.379 11.648,-11.697 1.028,-1.031 8.266,-7.568 14.599,-13.713 z"></path><path d="m 273.304,112.736 c 2.487,1.339 4.457,3.191 7.502,3.972 -0.354,1.261 -1.476,1.759 -1.77,3.087 v 26.91 c 3.402,0.75 4.118,-1.178 5.737,-2.205 0.442,4.307 3.186,8.529 3.088,11.91 -4.851,0 -9.706,0 -14.559,0 0.002,-14.555 0.002,-29.114 0.002,-43.674 z"></path><path d="m 253.892,127.148 c 0,0 5.296,-4.471 5.296,-4.643 v 23.484 l 3.814,-0.006 c 0,-8.947 -0.118,-18.022 -0.118,-26.338 1.548,-1.549 4.58,-3.791 5.338,-5.358 v 42.06 c -10.746,0 -30.793,0.012 -33.443,0.012 -0.493,-8.729 -0.577,-17.771 9.6,-15.826 0,-1.488 0,-2.369 0,-3.563 -0.311,-0.609 -0.868,0.147 -0.998,-0.645 1.615,-1.617 2.163,-2.029 6.538,-5.852 0,4.612 0.08,15.5 0.08,15.5 1.07,0 3.153,0.004 3.857,0.004 0.001,0.002 0.036,-18.227 0.036,-18.829 z m -12.553,18.603 c 0.716,1.075 3.154,1.056 3.04,-0.755 -0.411,-1.493 -3.616,-0.924 -3.04,0.755 z"></path><circle cx="144.527" cy="161.369" r="2.042"></circle><path d="m 207.549,112.779 c 2.488,1.339 4.457,3.191 7.502,3.971 -0.353,1.26 -1.476,1.76 -1.768,3.087 v 26.911 c 3.401,0.749 4.117,-1.18 5.736,-2.206 0.441,4.308 3.185,8.528 3.088,11.91 -4.852,0 -9.706,0 -14.56,0 0.002,-14.556 0.002,-29.114 0.002,-43.673 z"></path></g></g></svg>