<svg width="1136" height="568" xmlns="http://www.w3.org/2000/svg" xmlns:xlink="http://www.w3.org/1999/xlink" overflow="hidden"><defs><clipPath id="clip0"><rect x="-1" y="94" width="1136" height="568"></rect></clipPath></defs><g clip-path="url(#clip0)" transform="translate(1 -94)"><path d="M0 94 283.5 94 295.194 105.694 838.806 105.694 850.5 94 1134 94 1134 661 850.5 661 838.806 649.306 295.194 649.306 283.5 661 0 661Z" fill="#DA291C" fill-rule="evenodd"></path><path d="M283 94 850 94 850 661 283 661ZM577.131 617.294 571.816 515.352C571.53 509.161 576.318 503.911 582.509 503.625 583.318 503.588 584.129 503.638 584.927 503.776L686.397 521.612 672.694 483.813C671.555 480.729 672.505 477.262 675.057 475.189L786.213 385.178 761.17 373.484C757.67 371.83 755.949 367.83 757.154 364.152L779.125 296.584 715.101 310.169C711.525 310.914 707.919 309.037 706.478 305.68L694.075 276.503 644.108 330.132C641.191 333.209 636.331 333.339 633.253 330.421 631.352 328.619 630.501 325.971 630.996 323.399L655.094 199.131 616.467 221.457C612.808 223.601 608.104 222.373 605.96 218.715 605.874 218.569 605.793 218.419 605.718 218.267L566.5 141.25 527.283 218.267C525.385 222.06 520.773 223.597 516.981 221.7 516.829 221.624 516.68 221.543 516.533 221.457L477.906 199.131 502.004 323.399C502.805 327.563 500.079 331.588 495.914 332.389 493.342 332.884 490.694 332.033 488.892 330.132L438.925 276.503 426.522 305.68C425.081 309.037 421.475 310.914 417.899 310.169L353.875 296.584 375.846 364.152C377.051 367.83 375.329 371.83 371.83 373.484L346.788 385.178 457.943 475.189C460.496 477.262 461.446 480.729 460.306 483.813L446.603 521.612 548.073 503.776C554.181 502.725 559.984 506.825 561.034 512.933 561.171 513.732 561.222 514.543 561.184 515.352L555.869 617.294Z" fill="#FFFFFF" fill-rule="evenodd"></path></g></svg>