<svg width="1136" height="758" xmlns="http://www.w3.org/2000/svg" xmlns:xlink="http://www.w3.org/1999/xlink" overflow="hidden"><defs><clipPath id="clip0"><rect x="-1" y="-1" width="1136" height="758"></rect></clipPath></defs><g clip-path="url(#clip0)" transform="translate(1 1)"><path d="M1134 756.01 1134 0.0105006 0 0.0105006 0 756.01Z" fill="#006C35" fill-rule="evenodd"></path><path d="M802.128 202.328C808.534 197.748 814.504 192.611 821.638 189.002 819.599 197.192 813.485 203.439 807.224 208.714 804.021 211.212 805.477 215.793 805.04 219.263 803.293 218.847 801.692 218.43 799.945 217.875 801.546 238.697 803.876 259.379 804.895 280.201 805.04 282.561 805.186 285.059 807.224 286.586 816.833 295.193 826.734 303.66 833.722 314.626 836.488 318.929 837.944 323.788 839.4 328.646 841.147 320.595 841.002 312.266 840.128 304.077 836.634 272.428 833.431 240.64 830.665 208.852 830.373 204.966 829.791 200.94 830.228 197.053 830.519 193.444 834.159 190.39 837.798 190.668 839.982 192.473 841.147 194.971 842.312 197.47 845.224 203.994 847.844 211.073 847.116 218.43 845.369 217.875 843.622 217.181 841.73 216.487 844.35 238.003 846.971 259.518 848.572 281.173 849.3 295.748 851.484 310.462 848.427 324.898 845.806 338.224 839.255 351.689 827.607 359.323 817.852 365.708 806.496 369.318 795.14 371.677 790.481 372.649 785.677 373.066 781.163 371.816 785.968 369.179 791.355 367.235 796.45 365.015 803.876 361.822 811.01 358.352 817.707 353.91 823.967 349.745 830.519 345.581 835.178 339.473 829.354 323.927 819.745 309.351 806.059 299.773 806.496 315.043 807.224 330.589 804.895 345.72 804.458 349.329 802.856 352.521 800.381 355.02 798.78 348.635 798.634 341.972 797.906 335.448 796.596 321.289 795.431 306.992 794.412 292.833 794.412 289.918 792.519 287.697 790.336 286.031 781.745 278.813 773.738 270.762 765.439 263.266 765.73 272.011 767.041 280.617 767.623 289.224 768.642 300.884 768.788 312.544 769.953 324.204 770.681 332.394 770.826 341 767.769 348.774 764.711 356.131 757.868 362.377 749.715 362.932 745.348 363.349 740.98 362.932 736.758 362.238 732.244 361.544 728.75 358.074 726.712 354.187 724.237 349.468 722.926 344.193 720.888 339.335 717.103 340.167 713.172 341 710.405 343.915 704.582 349.468 702.835 357.935 700.068 365.153 698.467 369.456 696.574 374.176 692.352 376.536 687.984 379.034 682.597 378.063 678.375 375.703 671.969 372.233 668.038 365.57 666.145 358.768 664.253 353.493 666.873 347.386 663.67 342.388 661.341 337.808 662.651 332.394 663.816 327.674 666.291 319.207 671.532 311.989 677.793 305.881 669.494 298.663 661.195 291.445 652.896 284.227 653.624 304.215 655.226 324.204 652.605 344.054 652.169 348.08 650.713 351.827 647.801 354.742 646.927 350.995 646.345 347.108 646.054 343.221 644.015 321.289 642.268 299.357 640.812 277.425 640.667 274.926 640.23 272.15 638.192 270.484 629.747 262.433 621.594 253.827 614.023 244.804 609.656 239.252 605.142 233.561 602.813 226.898 601.939 224.122 601.211 220.235 603.832 218.153 606.889 218.43 609.656 219.818 612.276 221.207 617.081 223.983 621.594 227.592 625.525 231.756 627.272 233.561 628.146 235.92 628.874 238.28 626.399 238.28 624.069 238.141 621.594 238.141 626.544 245.221 632.368 251.745 639.065 257.297 638.483 238.697 636.445 219.957 635.571 201.357 635.571 198.858 635.571 196.082 637.318 194 638.92 192.195 641.395 191.501 643.579 190.668 647.655 196.637 650.567 203.3 652.314 210.379 653.042 213.156 652.896 216.07 652.751 218.986 651.004 218.569 649.257 218.014 647.655 217.459 648.82 232.589 650.421 247.581 651.441 262.711 651.586 264.793 651.732 267.014 652.314 269.096 653.188 270.623 654.498 271.595 655.663 272.705 666 281.45 676.337 290.195 686.819 298.663 693.08 293.249 699.195 287.697 705.455 282.422 706.911 281.173 708.367 280.062 709.532 278.674 710.697 277.425 710.26 275.62 710.26 274.093 708.221 255.909 706.766 237.725 705.164 219.541 704.727 212.878 703.708 206.354 703.708 199.83 703.563 195.943 706.62 192.056 710.551 191.917 712.298 191.779 713.026 193.722 713.9 194.832 716.812 199.969 718.995 205.521 720.306 211.351 721.034 214.127 720.742 217.042 720.16 219.957 718.559 219.263 716.812 218.43 715.21 217.736 717.394 234.81 719.141 251.884 720.742 268.957 725.256 265.626 729.332 261.739 733.555 258.13 738.213 254.105 743.164 250.218 747.677 245.915 742.29 240.085 736.612 234.671 731.079 228.98 727.585 225.371 723.363 221.901 721.907 216.765 720.742 213.156 721.47 209.269 722.198 205.799 728.75 206.909 734.428 210.796 739.669 214.682 743.309 217.459 746.512 220.651 749.715 223.844 749.424 216.626 748.551 209.408 747.968 202.189 747.968 199.413 747.677 196.359 749.57 194.138 751.171 192.334 753.646 191.64 755.685 190.668 759.907 196.221 762.527 202.883 764.275 209.546 765.148 212.6 765.148 215.654 765.002 218.708 763.255 218.291 761.363 217.875 759.616 217.459 760.198 223.011 760.78 228.425 761.508 233.977 768.351 228.841 774.612 223.011 781.454 217.875 783.784 215.654 788.006 213.988 788.006 210.102 788.152 205.937 787.278 201.634 787.86 197.47 788.297 193.861 791.791 190.946 795.431 191.223 798.925 194.555 800.236 198.719 802.128 202.328ZM766.604 242.445C765.439 243.694 763.255 244.804 763.401 246.887 764.275 248.691 766.022 250.079 767.478 251.606 775.922 259.241 783.929 267.292 792.811 274.232 792.519 266.042 791.646 257.991 791.209 249.802 790.481 241.195 790.19 232.589 789.316 223.983 781.454 229.674 774.32 236.337 766.604 242.445ZM745.202 227.314C747.095 229.396 748.842 231.479 750.734 233.561 750.734 231.479 750.589 229.396 750.589 227.314 748.842 227.314 746.949 227.314 745.202 227.314ZM724.819 277.98C723.363 279.229 721.616 280.617 721.762 282.7 721.616 293.249 722.781 304.077 720.16 314.349 719.578 316.986 717.685 318.79 715.792 320.456 713.463 310.323 713.317 299.912 711.57 289.64 705.31 294.637 699.34 300.051 693.517 305.465 696.865 309.213 700.214 313.238 701.379 318.374 703.271 325.453 701.087 333.643 695.264 338.363 688.13 344.332 678.521 345.303 669.64 346.414 670.95 352.244 672.115 358.352 675.609 363.349 677.793 366.264 681.287 369.04 685.072 367.93 689.149 366.819 691.624 362.932 693.08 359.323 695.992 351.966 699.195 344.748 703.563 338.085 707.057 332.533 712.735 327.952 719.432 327.813 721.616 327.952 724.528 327.258 725.838 329.618 728.75 334.476 729.769 340.306 733.409 344.887 739.524 352.938 752.482 353.077 759.761 346.414 762.236 344.193 762.236 340.584 761.945 337.53 758.596 309.907 756.121 282.006 753.209 254.382 743.455 262.017 734.282 270.068 724.819 277.98ZM673.425 325.176C671.823 327.258 670.95 329.895 670.222 332.533 676.774 333.227 683.471 331.839 689.149 328.507 690.896 327.397 692.934 325.592 692.498 323.232 692.061 318.513 688.13 315.181 684.636 312.405 680.705 316.292 676.774 320.595 673.425 325.176Z" fill="#FFFFFF" fill-rule="evenodd"></path><path d="M399.692 190.332C401.454 189.224 403.07 191.163 404.245 192.41 407.769 196.704 411.587 200.998 413.643 206.261 411.881 206.538 409.972 206.815 408.21 207.092 408.65 215.403 415.699 221.082 417.755 228.978 419.224 233.826 419.371 239.089 418.343 243.937 416.874 250.586 411.294 256.403 404.392 257.512 396.314 258.897 387.209 256.958 381.188 251.001 377.223 247.123 375.755 241.582 373.992 236.596 372.083 243.383 369.293 249.893 364.447 255.157 361.657 258.343 357.985 260.559 354.314 262.498 355.342 281.059 357.251 299.62 355.636 318.043 355.048 323.306 354.754 329.539 349.908 333.002 348.146 325.661 347.852 318.043 346.971 310.424 345.356 295.049 344.181 279.674 342.565 264.299 338.013 263.191 333.02 262.221 329.495 258.897 323.621 253.633 321.712 245.461 322.153 237.981 322.299 232.163 324.209 226.484 325.53 220.805 323.327 223.021 321.565 225.653 320.537 228.562 317.453 237.843 315.397 247.539 311.138 256.403 309.523 259.866 306.439 262.775 302.621 263.606 297.921 264.576 292.341 264.299 288.67 260.697 284.704 256.819 283.823 251.001 283.236 245.738 282.942 240.336 282.502 234.518 284.998 229.532 286.467 226.484 289.551 224.822 292.194 223.298 290.432 226.207 288.376 229.116 287.935 232.44 287.348 237.15 288.229 241.998 289.11 246.569 289.698 249.339 290.285 252.387 292.488 254.326 295.865 257.373 301.593 257.096 304.824 254.049 306.586 252.11 307.467 249.616 308.348 247.262 311.285 238.397 313.635 229.255 317.306 220.667 320.537 213.464 326.265 206.4 334.488 204.876 333.607 214.711 329.055 223.852 328.761 233.826 328.614 238.258 329.055 243.106 331.992 246.569 334.195 249.478 337.866 250.447 341.244 251.417 340.363 237.981 339.041 224.545 338.16 210.971 337.866 205.984 336.985 200.859 337.866 195.872 338.6 192.41 342.419 191.163 345.356 190.055 350.936 198.227 355.048 207.923 354.901 217.896 352.992 217.481 351.23 217.065 349.321 216.65 350.496 228.146 351.67 239.782 352.992 251.278 357.838 249.755 362.244 246.846 365.034 242.552 370.762 234.38 371.643 223.714 368.853 214.295 367.678 210.278 365.769 206.538 364.887 202.383 364.006 198.504 366.797 194.487 370.321 193.241 371.936 192.548 372.671 194.487 373.405 195.595 375.608 200.305 376.342 205.568 377.37 210.694 378.692 217.481 377.37 224.545 379.867 231.055 381.923 236.596 385.594 241.721 390.881 244.63 395.14 246.984 400.133 247.539 404.979 246.707 407.329 246.292 409.238 244.353 409.825 241.998 411 237.565 409.385 232.994 407.475 228.978 403.07 219.836 397.636 211.109 395.58 201.136 394.846 197.535 395.874 192.548 399.692 190.332Z" fill="#FFFFFF" fill-rule="evenodd"></path><path d="M599.524 200.861C602.353 196.066 606.82 192.399 611.882 190.002 610.542 193.527 608.458 196.489 606.522 199.592 605.033 201.848 605.033 204.669 604.884 207.207 608.309 207.066 611.733 206.502 615.009 205.656 614.115 208.335 613.222 211.156 610.691 212.848 607.862 214.822 603.693 216.092 600.715 213.694 597.589 210.451 597.142 204.81 599.524 200.861Z" fill="#FFFFFF" fill-rule="evenodd"></path><path d="M418.738 195.02C420.2 192.803 422.978 191.972 425.17 191.002 429.702 196.821 432.479 203.886 434.234 210.952 434.965 213.722 434.672 216.493 434.38 219.264 432.772 218.71 431.018 218.156 429.41 217.602 431.31 231.04 433.649 244.339 435.257 257.777 443.005 254.037 450.167 249.465 458.207 246.14 460.693 245.032 463.324 244.478 466.101 244.201 465.078 246.417 463.908 248.634 461.57 249.603 453.091 253.898 444.466 257.639 436.134 262.349 436.865 268.999 437.596 275.787 438.473 282.437 442.274 277.588 445.636 271.492 452.214 269.968 452.506 273.57 451.337 277.865 453.968 280.774 458.061 283.961 463.616 282.021 467.417 279.112 467.125 273.847 468.586 268.721 469.61 263.596 471.218 264.288 473.264 264.565 473.849 266.505 475.603 271.354 475.164 276.757 473.849 281.605 472.533 287.147 468.002 291.303 463.031 293.797 459.962 295.321 456.161 296.152 452.799 294.766 449.29 293.381 447.098 290.056 444.759 287.147 442.712 292.134 439.35 296.706 439.204 302.386 438.619 314.3 433.941 325.66 426.778 335.081 414.353 351.289 395.349 360.987 376.054 366.667 364.944 369.715 353.395 372.485 341.701 371.931 335.415 371.793 328.983 370.407 323.574 367.083 321.235 365.559 319.189 363.481 316.85 362.095 313.926 361.541 310.857 362.372 307.787 362.372 300.478 362.649 293.169 362.926 286.006 361.68 294.777 358.77 303.694 356.554 312.318 353.367 309.979 337.713 313.049 321.504 321.089 307.927 323.282 304.325 326.059 301.139 328.983 298.368 326.498 303.356 323.428 308.204 322.113 313.746 319.043 325.383 319.189 337.851 322.697 349.211 328.691 347.272 334.538 344.64 340.239 342.146 353.542 336.327 366.552 330.093 378.685 322.058 383.216 318.872 387.894 315.547 390.964 310.698 392.426 308.343 392.133 305.572 392.133 302.94 385.848 304.187 379.708 307.096 373.13 306.958 369.037 306.681 364.651 305.849 361.728 302.663 358.804 299.477 358.658 294.905 359.243 290.887 360.12 285.623 362.459 280.359 366.698 276.895 371.522 272.878 378.685 273.016 384.24 275.51 389.648 278.003 392.718 283.268 395.349 288.255 403.536 285.207 409.09 278.003 417.13 274.54 417.423 278.696 416.984 283.545 420.2 286.87 422.101 289.225 425.317 289.086 427.948 289.363 427.509 282.714 426.486 276.202 425.609 269.691 422.832 247.941 420.054 226.052 417.715 204.163 417.569 200.977 417.13 197.652 418.738 195.02ZM368.744 289.641C368.014 291.164 369.768 292.134 370.937 292.688 375.323 294.212 380.147 293.242 384.678 292.411 382.339 289.918 379.562 287.147 375.761 287.008 373.276 286.87 369.768 287.008 368.744 289.641ZM400.612 298.645C400.904 303.079 401.05 307.512 399.589 311.668 397.25 318.733 391.841 324.413 386.286 329.124 375.615 337.851 363.043 343.531 350.91 349.904 345.502 353.09 339.654 355.584 333.807 358.078 341.262 358.632 348.718 357.385 356.027 356.831 367.283 356.138 378.1 352.952 388.479 348.796 399.296 344.363 409.821 338.683 418.3 330.37 423.416 325.383 427.509 319.149 429.264 312.083 430.141 308.62 430.141 305.018 430.287 301.416 425.901 301.278 421.224 301.416 417.277 299.2 414.061 297.399 412.306 293.935 410.406 290.887 407.336 293.797 403.974 296.429 400.612 298.645Z" fill="#FFFFFF" fill-rule="evenodd"></path><path d="M518.843 194.321C520.485 192.467 523.472 192.752 525.413 194.036 529.744 196.888 532.283 202.165 531.984 207.299 531.835 209.723 530.789 211.863 530.043 214.002 529.445 210.722 529.595 207.299 528.101 204.304 525.861 201.167 521.68 200.596 518.992 198.029 517.947 197.173 517.499 195.177 518.843 194.321Z" fill="#FFFFFF" fill-rule="evenodd"></path><path d="M579.233 196.248C579.524 194.292 581.422 192.197 583.465 193.314 589.156 196.108 593.242 201.416 595.869 207.144 593.826 207.144 591.783 207.004 589.886 206.865 590.907 210.776 591.929 214.548 593.534 218.319 595.723 223.628 598.788 228.657 599.664 234.524 600.685 240.95 599.518 248.214 594.994 253.103 586.529 262.603 569.601 260.926 562.304 250.729 559.531 247.096 558.072 242.906 556.612 238.575 554.278 247.795 549.316 256.735 540.997 261.485 532.533 266.654 521.296 265.955 513.269 260.507 508.307 257.294 504.951 251.706 504.951 245.839 504.367 237.178 507.724 229.076 508.891 220.694 506.848 222.79 504.951 225.164 504.075 228.098 500.573 237.458 499.113 247.516 494.152 256.316 491.817 260.507 487.876 264.279 482.915 264.698 478.099 264.977 472.845 263.161 470.072 258.971 467.591 255.059 467.007 250.309 467.007 245.699 467.153 238.715 468.759 231.59 471.969 225.444 471.969 234.245 469.342 243.883 473.721 252.125 475.91 256.735 481.747 259.39 486.271 256.875 490.357 254.361 492.255 249.611 493.714 245.28 496.779 236.061 499.989 226.701 504.513 218.04 506.41 214.548 508.453 210.916 511.664 208.401 513.269 207.004 515.604 207.004 517.647 206.585 518.085 214.408 513.707 221.253 512.248 228.797 510.788 235.362 510.351 243.185 515.021 248.633 520.274 254.361 529.03 255.757 536.327 253.802 546.397 250.589 553.694 240.391 554.132 229.774 554.423 223.488 554.715 216.643 551.359 211.055 549.899 208.122 547.127 205.048 548.294 201.416 549.024 197.784 551.651 194.99 554.715 193.314 556.904 196.807 558.802 200.578 559.239 204.769 560.407 214.408 560.553 224.326 563.909 233.546 565.952 238.855 569.017 244.303 574.417 246.817 579.379 249.192 585.508 249.751 590.324 247.236 593.388 245.699 594.118 241.928 593.388 238.855 591.345 228.797 584.486 220.834 581.276 211.195 579.524 206.306 578.211 201.277 579.233 196.248Z" fill="#FFFFFF" fill-rule="evenodd"></path><path d="M677.023 194.585C680.059 193.208 684.396 194.309 685.841 197.477 686.42 198.991 685.408 200.369 684.251 201.195 682.083 200.782 680.203 199.68 678.324 198.854 675.866 203.536 674.565 208.769 673.119 214.002 672.107 211.523 671.24 208.907 669.65 206.703 667.626 203.949 664.445 202.572 662.132 200.093 661.409 197.89 664.012 195.411 666.18 196.1 669.361 197.064 671.24 199.955 673.119 202.572 673.987 199.68 674.42 196.237 677.023 194.585Z" fill="#FFFFFF" fill-rule="evenodd"></path><path d="M284.982 205.912C287.481 200.524 292.332 196.554 297.624 194.002 296.301 197.547 294.096 200.524 292.332 203.786 290.862 206.054 291.009 208.89 290.862 211.442 294.243 211.159 297.624 210.45 301.005 209.315 299.976 212.009 298.947 214.987 296.448 216.83 293.802 218.815 289.833 219.95 287.04 217.965 283.806 215.129 283.218 209.882 284.982 205.912Z" fill="#FFFFFF" fill-rule="evenodd"></path><path d="M471.305 198.56C472.172 193.921 478.96 194.061 481.127 197.575 482.571 200.106 483.293 202.777 484.737 205.307 486.037 207.837 487.626 210.508 486.76 213.46 485.46 218.099 482.138 221.753 481.704 226.673 483.293 225.971 484.882 225.127 486.471 224.284 486.037 226.814 486.471 230.188 483.871 231.593 480.693 233.139 476.794 230.047 477.083 226.533 477.516 220.207 483.582 215.287 481.704 208.54 475.638 216.834 467.261 224.284 457.007 225.83 461.484 222.175 466.539 219.645 470.583 215.428 473.183 212.898 474.916 209.664 476.649 206.572 474.483 204.323 470.728 202.214 471.305 198.56ZM475.494 198.138C476.505 199.684 477.805 200.949 479.249 201.793 478.671 199.965 477.227 198.7 475.494 198.138Z" fill="#FFFFFF" fill-rule="evenodd"></path><path d="M439.006 201.671C441.178 201.11 443.783 200.269 445.52 202.232 450.73 207.139 453.191 214.991 451.454 222.002 450.296 219.338 449.428 216.534 448.125 214.01 445.954 209.242 441.178 206.438 439.006 201.671Z" fill="#FFFFFF" fill-rule="evenodd"></path><path d="M392.134 205.002C394.323 207.372 395.344 210.3 394.906 213.508 391.405 214.065 387.903 215.041 384.402 215.878 382.505 216.436 380.463 215.041 380.025 213.089 379.879 210.998 380.608 209.046 381.046 206.954 381.776 209.046 382.505 211.137 383.235 213.368 384.11 212.95 385.131 212.671 386.007 212.253 386.007 210.3 386.007 208.348 386.007 206.536 386.736 206.536 387.466 206.536 388.049 206.536 388.341 208.209 388.633 210.022 388.925 211.695 390.092 211.555 391.113 211.416 392.28 211.276 392.134 209.185 392.134 207.093 392.134 205.002Z" fill="#FFFFFF" fill-rule="evenodd"></path><path d="M688.176 209.093C690.973 208.275 694.065 208.002 697.009 208.002 695.537 209.638 693.918 211.138 691.857 211.956 681.699 215.911 671.246 218.775 661.53 223.82 662.413 225.593 663.296 227.229 664.18 229.002 661.824 228.593 659.027 228.593 657.261 226.684 655.641 225.184 655.494 222.32 657.408 220.956 659.027 219.729 660.794 219.047 662.708 218.229 671.099 215.229 679.49 211.82 688.176 209.093Z" fill="#FFFFFF" fill-rule="evenodd"></path><path d="M535.806 216.373C536.992 215.397 538.326 214.699 539.512 214.002 539.364 217.769 540.698 221.117 542.329 224.465 543.959 227.813 542.625 232.556 538.623 233.393 535.213 234.509 532.1 232.416 529.728 230.463 527.801 232.137 525.725 234.369 522.908 233.951 517.72 233.672 515.2 227.673 516.237 223.209 516.682 220.28 519.054 218.466 521.13 216.652 520.833 219.722 519.647 222.791 520.388 225.86 520.981 227.952 523.501 227.952 525.28 228.65 525.873 225.302 526.022 221.814 526.911 218.327 527.208 216.513 529.431 216.373 530.617 215.536 530.914 218.466 530.766 221.396 531.655 224.186 532.396 226.278 534.916 226.976 536.695 227.952 537.585 223.907 535.806 220.14 535.806 216.373Z" fill="#FFFFFF" fill-rule="evenodd"></path><path d="M384.006 222.042C386.238 222.042 388.916 221.64 390.702 223.382 395.761 228.07 398.291 235.438 396.356 242.002 394.571 237.581 393.083 232.759 389.214 229.41 386.833 227.4 384.452 225.123 384.006 222.042Z" fill="#FFFFFF" fill-rule="evenodd"></path><path d="M686.675 239.071C687.717 237.816 689.058 236.979 690.398 236.002 690.398 239.49 691.59 242.698 693.079 245.767 694.568 248.837 694.568 253.719 690.845 255.114 687.419 256.649 683.845 254.835 681.015 252.882 678.781 254.556 676.1 256.649 672.973 255.812 668.356 254.835 666.42 249.534 667.164 245.349 667.462 242.28 670.143 240.327 672.228 238.374 671.781 241.582 670.441 244.791 671.335 247.999 672.079 250.092 674.611 249.673 676.398 250.092 676.994 246.465 676.696 242.698 678.186 239.35 679.228 238.513 680.569 237.955 681.909 237.397 682.058 240.606 681.462 244.093 683.1 247.023 684.143 248.837 686.377 248.976 688.164 249.534 688.015 246.046 686.973 242.559 686.675 239.071Z" fill="#FFFFFF" fill-rule="evenodd"></path><path d="M807.242 244.35C806.361 242.176 808.122 240.002 810.471 240.002 814.141 240.002 816.93 242.991 818.691 245.845 821.774 251.687 823.242 258.752 820.746 265.002 819.425 259.432 819.572 252.366 814.288 248.698 811.939 247.339 809.15 246.524 807.242 244.35Z" fill="#FFFFFF" fill-rule="evenodd"></path><path d="M606.496 257.004C608.095 255.207 610.713 254.655 613.039 255.207 615.947 257.971 615.366 262.946 613.039 265.849 608.822 271.377 601.843 274.002 595.008 274.002 599.225 271.515 604.024 270.133 607.805 266.954 609.549 265.71 609.259 263.361 609.549 261.426 607.514 261.703 605.478 262.117 603.588 262.394 604.46 260.597 605.187 258.662 606.496 257.004Z" fill="#FFFFFF" fill-rule="evenodd"></path><path d="M704.053 260.517C705.372 260.232 707.13 259.378 708.009 260.801 706.984 264.217 703.467 265.64 700.683 267.063 690.134 272.044 679.877 277.594 669.474 283.002 669.035 282.006 668.449 281.152 668.009 280.156 673.87 275.744 680.317 272.471 686.617 268.913 692.478 265.925 698.046 262.652 704.053 260.517Z" fill="#FFFFFF" fill-rule="evenodd"></path><path d="M506.634 269.13C506.926 267.051 508.386 265.527 509.554 264.003 517.585 272.732 524.447 282.847 528.097 294.348 531.602 305.295 532.478 316.796 534.668 328.019 535.836 333.7 536.858 339.658 540.654 344.231 543.136 347.418 546.787 349.358 550.291 351.298 551.021 347.695 551.897 343.815 555.255 341.737 565.476 334.947 577.303 330.79 588.984 327.049 579.493 326.772 569.856 327.049 560.366 326.911 552.627 326.772 544.888 327.465 537.296 326.079 537.588 323.169 537.588 320.121 539.34 317.488 542.844 311.669 548.977 308.343 554.817 305.295 563.724 300.722 572.776 296.704 582.413 294.071 579.931 291.438 576.135 288.528 577.157 284.233 578.909 279.245 583.289 274.256 588.838 274.395 594.97 274.395 600.956 276.889 606.213 279.938 609.425 282.016 613.367 284.233 614.535 288.113 614.389 290.884 612.929 293.378 611.323 295.595 607.965 299.752 601.978 299.475 597.014 300.029 596.722 303.355 596.284 307.373 592.926 308.897 591.904 306.265 590.882 303.77 589.714 301.138 577.595 303.355 566.79 309.59 557.299 317.073 584.165 317.211 610.885 316.518 637.751 316.657 639.503 316.796 641.255 316.934 643.007 317.211 641.839 324.278 634.685 327.742 628.406 329.266 615.704 332.037 603.001 334.532 590.298 337.026 580.807 338.966 571.17 341.183 562.556 345.478 559.344 347.002 556.715 349.635 554.525 352.545 560.804 354.9 567.374 356.286 573.945 357.533 576.135 358.087 579.201 358.503 579.785 361.136 580.661 364.6 580.807 369.45 577.449 371.667 573.214 372.637 568.834 371.667 564.6 370.974 552.919 369.173 541.676 363.076 534.96 353.099 529.849 345.894 528.389 336.887 527.075 328.296 523.717 333.008 520.213 337.719 515.978 341.598 504.59 352.268 490.865 360.027 476.556 366.263 471.591 368.48 465.313 369.173 460.349 366.124 456.844 364.046 455.53 359.75 454.07 356.148 440.783 362.937 427.204 369.45 412.457 372.221 403.405 373.884 394.206 375.131 385.007 374.992 389.826 372.637 394.79 370.835 399.608 368.895 415.669 362.244 431.439 354.762 446.916 346.725 448.814 345.617 451.15 344.647 452.464 342.845 453.924 338.827 454.07 334.532 456.26 330.652 458.451 325.941 462.393 322.338 466.627 319.567 463.853 325.664 460.933 331.899 460.057 338.55 469.401 332.869 478.308 326.495 486.192 318.735 488.237 316.518 491.157 313.747 489.989 310.422 488.529 305.71 486.046 301.554 484.294 296.981 481.666 290.33 478.454 283.402 479.184 276.058 479.33 273.702 481.082 271.901 482.25 270.099 488.675 274.256 492.763 281.046 496.413 287.559 495.099 287.836 493.639 288.113 492.325 288.39 494.807 295.18 498.895 301.276 500.063 308.482 500.939 314.024 499.625 320.121 495.683 324.278 485.754 334.947 473.49 342.984 461.955 351.714 463.999 352.822 466.189 354.346 468.671 354.208 473.49 354.069 478.162 352.406 482.542 350.605 498.603 343.538 511.744 331.76 525.323 320.814 521.965 307.789 515.978 295.595 509.7 283.679 507.51 279.522 505.904 274.256 506.634 269.13ZM584.165 286.311C585.771 288.528 587.962 290.33 590.59 291.3 594.532 292.131 598.328 289.776 601.248 287.281 597.598 284.51 593.364 282.293 588.692 282.293 586.501 282.293 584.165 284.094 584.165 286.311Z" fill="#FFFFFF" fill-rule="evenodd"></path><path d="M305.812 269.344C305.959 267.699 307.276 265.916 309.179 266.053 314.155 265.505 317.667 269.481 320.741 272.634 322.351 274.279 323.668 276.472 322.643 278.803 322.058 281.408 318.985 281.271 316.936 281.819 312.545 282.093 310.789 286.754 307.422 288.811 300.69 293.335 292.347 296.899 284.005 295.802 286.054 292.923 289.42 291.69 292.64 290.73 298.641 288.811 303.471 284.561 307.861 280.174 306.69 276.61 305.227 273.045 305.812 269.344ZM308.593 269.892C308.886 272.223 309.471 274.69 310.789 276.747 311.667 274.827 312.545 272.771 313.277 270.852 311.813 270.44 310.203 270.166 308.593 269.892ZM315.179 278.803C316.789 278.666 318.399 278.392 320.009 278.255 319.716 276.198 319.277 274.142 318.399 272.223 316.35 273.731 316.057 276.472 315.179 278.803Z" fill="#FFFFFF" fill-rule="evenodd"></path><path d="M553.434 270.414C554.322 269.342 555.803 268.672 556.988 268.002 556.988 272.691 560.542 276.309 560.986 280.864 561.43 285.553 555.063 287.964 551.213 285.821 550.028 285.017 548.992 284.079 547.955 283.275 545.882 285.017 543.661 287.562 540.552 286.893 535.813 286.089 533.296 280.864 534.184 276.577 534.629 273.629 537.146 271.754 539.367 270.012 538.923 272.825 537.886 275.505 538.182 278.452 538.479 280.596 540.996 281.266 542.773 282.204 543.957 278.988 544.253 275.505 544.846 272.021 545.142 270.146 547.511 269.878 548.844 268.94 548.992 271.754 548.844 274.701 549.732 277.381 550.621 279.256 552.694 280.194 554.322 281.266 556.099 277.648 553.582 274.031 553.434 270.414Z" fill="#FFFFFF" fill-rule="evenodd"></path><path d="M320.337 287.764C322.793 286.66 325.393 285.282 328.137 285.006 330.737 284.868 332.037 288.867 330.015 290.521 326.982 292.865 323.371 293.83 319.904 295.347 311.815 299.207 303.727 302.93 295.783 307.204 294.049 308.307 291.883 308.032 290.005 307.756 291.16 305.412 292.749 303.206 295.06 301.827 303.438 296.726 311.815 292.038 320.337 287.764Z" fill="#FFFFFF" fill-rule="evenodd"></path><path d="M627.314 292.012C627.901 289.247 631.133 288.832 633.483 288.003 634.071 292.012 634.512 296.16 637.009 299.478 635.687 299.616 634.365 299.754 633.189 299.893 631.427 302.52 629.517 305.423 626.579 306.806 621.732 309.156 616.297 309.156 611.009 308.879 616.591 307.358 623.495 306.944 627.167 301.966 629.664 299.063 627.02 295.33 627.314 292.012Z" fill="#FFFFFF" fill-rule="evenodd"></path><path d="M737.281 296.123C738.014 293.847 740.651 293.847 742.556 294.132 746.658 294.843 749.589 298.398 752.226 301.384 754.131 303.233 754.717 306.504 752.959 308.779 750.321 310.912 746.072 309.632 743.728 312.477 736.695 320.725 725.852 325.986 715.01 324.849 717.061 321.862 720.431 320.582 723.801 319.587 729.808 317.596 734.497 313.045 738.893 308.637 737.721 304.655 735.962 300.389 737.281 296.123ZM740.065 297.829C740.358 300.389 740.944 302.949 741.823 305.366 742.849 303.375 743.874 301.384 744.461 299.251 742.995 298.683 741.384 298.256 740.065 297.829ZM748.563 300.958C747.684 302.949 747.098 305.082 746.512 307.215 748.124 307.073 749.735 306.788 751.347 306.646 750.907 304.655 750.615 302.664 749.735 300.816 749.442 300.816 748.856 300.958 748.563 300.958Z" fill="#FFFFFF" fill-rule="evenodd"></path><path d="M461.214 300.411C464.01 297.733 469.013 299.143 470.779 302.384 471.661 304.217 469.748 305.626 469.013 307.036 467.541 306.19 466.07 305.062 464.451 304.639 462.98 304.217 462.538 305.908 462.097 306.895 460.331 311.123 459.448 315.633 458.124 320.003 457.094 317.325 456.358 314.647 454.74 312.251 452.974 309.714 450.031 308.304 447.824 306.19 445.764 304.499 447.971 300.834 450.325 301.257 453.71 301.68 455.77 304.78 458.124 307.036 459.007 304.78 459.596 302.243 461.214 300.411Z" fill="#FFFFFF" fill-rule="evenodd"></path><path d="M286.355 324.817C289.006 320.042 293.192 316.39 297.935 314.003 296.68 317.514 294.726 320.604 292.913 323.694 291.518 325.941 291.518 328.609 291.378 331.138 294.587 330.997 297.796 330.435 301.005 329.733 300.167 332.402 299.191 335.351 296.819 336.896 294.168 338.722 290.401 340.126 287.611 337.739 284.542 334.227 284.263 328.75 286.355 324.817Z" fill="#FFFFFF" fill-rule="evenodd"></path><path d="M518.916 345.729C521.505 345.31 524.552 344.192 526.836 346.008 529.121 347.406 529.882 351.04 527.75 352.996 524.552 354.673 520.439 353.695 517.698 356.071 518.155 359.705 521.049 362.639 521.658 366.133 521.81 368.369 519.982 370.186 518.916 372.003 518.155 368.509 517.546 364.736 515.566 361.661 514.347 359.425 512.519 357.189 513.129 354.533 513.738 351.599 516.936 350.201 519.221 348.803 519.069 347.965 518.916 346.847 518.916 345.729Z" fill="#FFFFFF" fill-rule="evenodd"></path><path d="M630.974 350.675C632.076 347.839 634.692 346.488 637.033 345.003 636.069 347.299 634.417 349.595 634.141 352.16 635.243 354.186 637.033 355.672 637.997 357.833 638.273 361.344 633.315 361.884 631.525 359.723 629.459 357.292 629.735 353.511 630.974 350.675Z" fill="#FFFFFF" fill-rule="evenodd"></path><path d="M604.313 346.559C608.339 345.177 612.651 346.559 616.245 348.633 613.658 354.024 607.62 355.407 603.163 358.725 603.307 359.277 603.451 360.383 603.451 360.936 606.614 361.074 609.92 361.489 612.651 359.83 616.245 357.895 619.983 356.098 624.008 355.268 620.846 358.033 617.827 360.798 614.664 363.425 610.926 366.466 605.751 366.466 601.295 365.222 599.138 364.53 596.407 362.595 597.126 359.83 598.276 356.374 601.726 354.577 604.457 352.504 602.445 352.366 600.576 352.227 598.563 352.089 600.144 349.877 601.582 347.112 604.313 346.559Z" fill="#FFFFFF" fill-rule="evenodd"></path><path d="M709.652 355.969C708.141 354.252 709.501 351.388 711.617 351.102 715.698 350.386 719.174 353.679 720.988 356.971 723.709 361.553 723.557 367.279 721.29 372.003 720.535 368.71 720.535 365.275 718.872 362.268 716.605 359.262 712.373 358.689 709.652 355.969Z" fill="#FFFFFF" fill-rule="evenodd"></path><path d="M775.5 357.972C780.858 356.027 786.217 353.526 792.01 354.082 790.707 356.166 789.114 358.111 786.652 358.944 777.672 362.278 768.548 365.335 759.714 369.086 756.962 370.336 754.065 371.308 751.024 372.003 750.734 371.169 750.3 370.336 750.01 369.502 758.121 364.779 766.81 361.445 775.5 357.972Z" fill="#FFFFFF" fill-rule="evenodd"></path><path d="M757.009 537.223 712.089 537.223 712.089 532.984C714.117 531.239 716.871 528.87 716.871 527.499 716.871 525.13 711.219 520.268 709.915 520.268 708.466 520.268 702.96 525.255 702.96 527.499 702.96 528.995 705.423 531.114 707.452 532.86L707.597 532.984 707.597 537.348 353.309 537.348C365.916 549.815 384.608 549.69 422.138 550.064 455.611 550.563 455.466 550.563 707.452 550.064L707.452 554.552C705.423 556.297 702.96 558.666 702.96 560.038 702.96 562.406 708.321 567.268 709.915 567.268 710.93 567.268 714.262 564.526 716.001 562.157L731.506 562.157C732.52 563.902 734.839 564.9 737.592 564.9 740.345 564.9 742.663 563.778 743.678 562.157L762.225 562.157C764.544 564.775 767.731 564.9 769.615 564.9 776.715 564.65 778.309 561.035 778.309 548.568 778.165 538.096 771.064 536.974 757.009 537.223ZM760.197 558.292 743.678 558.292C742.663 556.547 740.345 555.425 737.592 555.425 734.839 555.425 732.52 556.547 731.506 558.292L716.291 558.292C715.422 557.045 713.683 555.425 712.234 554.427L712.234 549.939 759.617 549.939 760.341 549.939C759.472 553.181 759.327 556.048 760.197 558.292Z" fill="#FFFFFF" fill-rule="evenodd"></path></g></svg>